<svg viewBox="0 0 1200 800" xmlns="http://www.w3.org/2000/svg" role="img" aria-label="Weft 3D mesh">
<defs>
  <linearGradient id="g-bg" x1="0" y1="0" x2="0" y2="1">
    <stop offset="0" stop-color="#ccd6ec"/>
    <stop offset="1" stop-color="#aebdd6"/>
  </linearGradient>
  <radialGradient id="g-dc" cx="50%" cy="50%" r="50%">
    <stop offset="0"   stop-color="rgba(37,99,235,0.18)"/>
    <stop offset="0.7" stop-color="rgba(37,99,235,0.06)"/>
    <stop offset="1"   stop-color="rgba(37,99,235,0.00)"/>
  </radialGradient>
  <linearGradient id="g-rack-top" x1="0" y1="0" x2="0.6" y2="1">
    <stop offset="0"   stop-color="#8497c9"/>
    <stop offset="0.5" stop-color="#5b6da3"/>
    <stop offset="1"   stop-color="#41527f"/>
  </linearGradient>
  <linearGradient id="g-rack-front" x1="0" y1="0" x2="0" y2="1">
    <stop offset="0" stop-color="#43548a"/>
    <stop offset="1" stop-color="#27365f"/>
  </linearGradient>
  <linearGradient id="g-rack-side" x1="0" y1="0" x2="0" y2="1">
    <stop offset="0" stop-color="#283861"/>
    <stop offset="1" stop-color="#172445"/>
  </linearGradient>
  <linearGradient id="g-plinth-front" x1="0" y1="0" x2="0" y2="1">
    <stop offset="0" stop-color="#2a3a64"/>
    <stop offset="1" stop-color="#1a2748"/>
  </linearGradient>
  <linearGradient id="g-plinth-side" x1="0" y1="0" x2="0" y2="1">
    <stop offset="0" stop-color="#1c2a4e"/>
    <stop offset="1" stop-color="#101c38"/>
  </linearGradient>
  <linearGradient id="g-server-panel" x1="0" y1="0" x2="0" y2="1">
    <stop offset="0" stop-color="#202f54"/>
    <stop offset="1" stop-color="#142142"/>
  </linearGradient>
  <linearGradient id="g-display" x1="0" y1="0" x2="0" y2="1">
    <stop offset="0" stop-color="#67e8f9"/>
    <stop offset="1" stop-color="#0891b2"/>
  </linearGradient>
  <symbol id="logo-github" viewBox="0 0 24 24"><path d="M12 .297c-6.63 0-12 5.373-12 12 0 5.303 3.438 9.8 8.205 11.385.6.113.82-.258.82-.577 0-.285-.01-1.04-.015-2.04-3.338.724-4.042-1.61-4.042-1.61C4.422 18.07 3.633 17.7 3.633 17.7c-1.087-.744.084-.729.084-.729 1.205.084 1.838 1.236 1.838 1.236 1.07 1.835 2.809 1.305 3.495.998.108-.776.417-1.305.76-1.605-2.665-.3-5.466-1.332-5.466-5.93 0-1.31.465-2.38 1.235-3.22-.135-.303-.54-1.523.105-3.176 0 0 1.005-.322 3.3 1.23.96-.267 1.98-.399 3-.405 1.02.006 2.04.138 3 .405 2.28-1.552 3.285-1.23 3.285-1.23.645 1.653.24 2.873.12 3.176.765.84 1.23 1.91 1.23 3.22 0 4.61-2.805 5.625-5.475 5.92.42.36.81 1.096.81 2.22 0 1.606-.015 2.896-.015 3.286 0 .315.21.69.825.57C20.565 22.092 24 17.592 24 12.297c0-6.627-5.373-12-12-12"/></symbol>
  <symbol id="logo-gitlab" viewBox="0 0 24 24"><path d="m23.6004 9.5927-.0337-.0862L20.3.9814a.851.851 0 0 0-.3362-.405.8748.8748 0 0 0-.9997.0539.8748.8748 0 0 0-.29.4399l-2.2055 6.748H7.5375l-2.2057-6.748a.8573.8573 0 0 0-.29-.4412.8748.8748 0 0 0-.9997-.0537.8585.8585 0 0 0-.3362.4049L.4332 9.5015l-.0325.0862a6.0657 6.0657 0 0 0 2.0119 7.0105l.0113.0087.03.0213 4.976 3.7264 2.462 1.8633 1.4995 1.1321a1.0085 1.0085 0 0 0 1.2197 0l1.4995-1.1321 2.4619-1.8633 5.006-3.7489.0125-.01a6.0682 6.0682 0 0 0 2.0094-7.003z"/></symbol>
  <symbol id="logo-forgejo" viewBox="0 0 24 24"><path d="M16.7773 0c1.6018 0 2.9004 1.2986 2.9004 2.9005s-1.2986 2.9004-2.9004 2.9004c-1.0854 0-2.0315-.596-2.5288-1.4787H12.91c-2.3322 0-4.2272 1.8718-4.2649 4.195l-.0007 2.1175a7.0759 7.0759 0 0 1 4.148-1.4205l.1176-.001 1.3385.0002c.4973-.8827 1.4434-1.4788 2.5288-1.4788 1.6018 0 2.9004 1.2986 2.9004 2.9005s-1.2986 2.9004-2.9004 2.9004c-1.0854 0-2.0315-.596-2.5288-1.4787H12.91c-2.3322 0-4.2272 1.8718-4.2649 4.195l-.0007 2.319c.8827.4973 1.4788 1.4434 1.4788 2.5287 0 1.602-1.2986 2.9005-2.9005 2.9005-1.6018 0-2.9004-1.2986-2.9004-2.9005 0-1.0853.596-2.0314 1.4788-2.5287l-.0002-9.9831c0-3.887 3.1195-7.0453 6.9915-7.108l.1176-.001h1.3385C14.7458.5962 15.692 0 16.7773 0ZM7.2227 19.9052c-.6596 0-1.1943.5347-1.1943 1.1943s.5347 1.1943 1.1943 1.1943 1.1944-.5347 1.1944-1.1943-.5348-1.1943-1.1944-1.1943Zm9.5546-10.4644c-.6596 0-1.1944.5347-1.1944 1.1943s.5348 1.1943 1.1944 1.1943c.6596 0 1.1943-.5347 1.1943-1.1943s-.5347-1.1943-1.1943-1.1943Zm0-7.7346c-.6596 0-1.1944.5347-1.1944 1.1943s.5348 1.1943 1.1944 1.1943c.6596 0 1.1943-.5347 1.1943-1.1943s-.5347-1.1943-1.1943-1.1943Z"/></symbol>
  <symbol id="logo-jupyter" viewBox="0 0 24 24"><path d="M7.157 22.201A1.784 1.799 0 0 1 5.374 24a1.784 1.799 0 0 1-1.784-1.799 1.784 1.799 0 0 1 1.784-1.799 1.784 1.799 0 0 1 1.783 1.799zM20.582 1.427a1.415 1.427 0 0 1-1.415 1.428 1.415 1.427 0 0 1-1.416-1.428A1.415 1.427 0 0 1 19.167 0a1.415 1.427 0 0 1 1.415 1.427zM4.992 3.336A1.047 1.056 0 0 1 3.946 4.39a1.047 1.056 0 0 1-1.047-1.055A1.047 1.056 0 0 1 3.946 2.28a1.047 1.056 0 0 1 1.046 1.056zm7.336 1.517c3.769 0 7.06 1.38 8.768 3.424a9.363 9.363 0 0 0-3.393-4.547 9.238 9.238 0 0 0-5.377-1.728A9.238 9.238 0 0 0 6.95 3.73a9.363 9.363 0 0 0-3.394 4.547c1.713-2.04 5.004-3.424 8.772-3.424zm.001 13.295c-3.768 0-7.06-1.381-8.768-3.425a9.363 9.363 0 0 0 3.394 4.547A9.238 9.238 0 0 0 12.33 21a9.238 9.238 0 0 0 5.377-1.729 9.363 9.363 0 0 0 3.393-4.547c-1.712 2.044-5.003 3.425-8.772 3.425Z"/></symbol>
  <filter id="glow" x="-50%" y="-50%" width="200%" height="200%">
    <feGaussianBlur stdDeviation="2.4"/>
  </filter>
</defs>
<style>
  .bg          { fill: url(#g-bg); }
  .grid        { stroke: rgba(37,99,235,0.10); stroke-width: 1; fill: none; }
  .dc-ground   { fill: url(#g-dc); stroke: rgba(37,99,235,0.50); stroke-width: 1.4; stroke-dasharray: 4 6; }
  .dc-shadow   { fill: rgba(37,99,235,0.10); }
  .rack-top    { fill: url(#g-rack-top);   stroke: #9aacd8; stroke-width: 0.7; }
  .rack-front  { fill: url(#g-rack-front); stroke: #56689c; stroke-width: 0.7; }
  .rack-side   { fill: url(#g-rack-side);  stroke: #2f3f68; stroke-width: 0.7; }
  .plinth-front{ fill: url(#g-plinth-front); stroke: #3a4a78; stroke-width: 0.6; }
  .plinth-side { fill: url(#g-plinth-side);  stroke: #25345c; stroke-width: 0.6; }
  .plinth-top  { fill: #354574; stroke: #4a5c92; stroke-width: 0.5; }
  .rack-edge   { stroke: rgba(200,222,255,0.90); stroke-width: 1.5; fill: none; stroke-linecap: round; }
  .rack-rail   { stroke: rgba(160,190,240,0.30); stroke-width: 0.6; fill: none; }
  .server-panel    { fill: url(#g-server-panel); stroke: rgba(160,190,240,0.45); stroke-width: 0.5; }
  .server-edge-top { stroke: rgba(190,212,250,0.55); stroke-width: 0.6; fill: none; }
  .server-bracket  { fill: rgba(160,190,240,0.60); }
  .tenant-a    { fill: #0ea5d8; }
  .tenant-b    { fill: #f59e0b; }
  .tenant-c    { fill: #ec4899; }
  .tenant-d    { fill: #10b981; }
  .tenant-e    { fill: #a855f7; }
  .mvm-infra   { fill: #6366f1; }
  /* CI runner microVMs — brand-tinted, outlined so they read as special. */
  .runner-gitlab  { fill: #fc6d26; stroke: #fff7ed; stroke-width: 0.5; }
  .runner-github  { fill: #c9d1d9; stroke: #ffffff; stroke-width: 0.5; }
  .runner-forgejo { fill: #fb923c; stroke: #fff7ed; stroke-width: 0.5; }
  /* Ephemeral CI-job microVMs — lime, fast pulse (churn). */
  .mvm-ci      { fill: #a3e635; }
  /* Per-user JupyterHub notebook microVMs — Jupyter orange. */
  .mvm-notebook { fill: #f37726; }
  /* CubeFS distributed-storage microVMs — S3 + POSIX volumes (CNCF). */
  .svc-cubefs  { fill: #2dd4bf; }
  .dc-label    { fill: #1e3a8a; font-family: ui-sans-serif, system-ui, sans-serif; font-size: 15px; font-weight: 700; letter-spacing: 0.22em; text-anchor: middle; }
  .wg-link     { fill: none; stroke: rgba(37,99,235,0.38); stroke-width: 0.7; stroke-dasharray: 2 4; stroke-linecap: round; }
  .wg-link-hi  { fill: none; stroke: rgba(8,145,178,0.85); stroke-width: 1.3; stroke-dasharray: 3 4; stroke-linecap: round; filter: url(#glow); }
  /* Client → weft API (dev laptops + CI runners driving the control plane). */
  .client-link { fill: none; stroke: #475569; stroke-width: 1.5; stroke-linecap: round; }
  /* weft → spawned CI-job microVM. */
  .spawn-link  { fill: none; stroke: rgba(101,163,13,0.75); stroke-width: 1.1; stroke-dasharray: 2 3; stroke-linecap: round; }
  .laptop-deck   { fill: #5a6b94; stroke: #7587b3; stroke-width: 0.5; }
  .laptop-front  { fill: #3a4a72; stroke: #2a3858; stroke-width: 0.5; }
  .laptop-side   { fill: #2b3859; stroke: #1c2742; stroke-width: 0.5; }
  .laptop-screen { fill: #16203c; stroke: #44558a; stroke-width: 0.6; }
  .laptop-display{ fill: url(#g-display); }
  /* External forge services (GitHub / GitLab / Forgejo) + their runners. */
  .forge-tile  { fill: #ffffff; stroke: rgba(37,99,235,0.30); stroke-width: 1; }
  .logo-github  { fill: #181717; }
  .logo-gitlab  { fill: #fc6d26; }
  .logo-forgejo { fill: #fb923c; }
  .logo-jupyter { fill: #f37726; }
  .forge-label { fill: #1e3a8a; font-family: ui-sans-serif, system-ui, sans-serif; font-size: 11px; font-weight: 600; text-anchor: middle; }
  .forge-link  { fill: none; stroke-width: 1.2; stroke-dasharray: 5 4; stroke-linecap: round; }
  .forge-link.gitlab  { stroke: rgba(252,109,38,0.75); }
  .forge-link.github  { stroke: rgba(60,70,85,0.65); }
  .forge-link.forgejo { stroke: rgba(251,146,60,0.80); }
  .forge-link.jupyter { stroke: rgba(243,119,38,0.75); }
  .legend-bg   { fill: rgba(255,255,255,0.92); stroke: rgba(37,99,235,0.25); }
  .legend-text { fill: #1e3a8a; font-family: ui-sans-serif, system-ui, sans-serif; font-size: 11px; font-weight: 500; }
  @keyframes pulse  { 0%,100% { opacity: 1 } 50% { opacity: 0.25 } }
  @keyframes flow   { to { stroke-dashoffset: -110 } }
  /* Every microVM picks one of these phases so they blink out of sync. */
  .tenant-a, .tenant-b, .tenant-c, .tenant-d, .tenant-e, .mvm-infra,
  .runner-gitlab, .runner-github, .runner-forgejo, .svc-cubefs, .mvm-notebook {
    animation-name: pulse; animation-timing-function: ease-in-out; animation-iteration-count: infinite;
  }
  /* CI jobs churn faster than steady workloads. */
  .mvm-ci { animation: pulse 1.1s ease-in-out infinite; }
  .phase-0 { animation-duration: 2.4s; animation-delay: -0.0s; }
  .phase-1 { animation-duration: 2.7s; animation-delay: -0.4s; }
  .phase-2 { animation-duration: 3.1s; animation-delay: -0.9s; }
  .phase-3 { animation-duration: 2.5s; animation-delay: -1.3s; }
  .phase-4 { animation-duration: 2.9s; animation-delay: -1.7s; }
  .phase-5 { animation-duration: 3.3s; animation-delay: -2.1s; }
  .phase-6 { animation-duration: 2.6s; animation-delay: -2.4s; }
  .phase-7 { animation-duration: 3.0s; animation-delay: -2.8s; }
  .wg-link, .wg-link-hi, .spawn-link { animation: flow 8s linear infinite; }
  @media (prefers-reduced-motion: reduce) {
    .tenant-a, .tenant-b, .tenant-c, .tenant-d, .tenant-e, .mvm-infra,
    .runner-gitlab, .runner-github, .runner-forgejo, .mvm-ci, .svc-cubefs, .mvm-notebook,
    .wg-link, .wg-link-hi, .spawn-link { animation: none }
  }
</style>
<rect class="bg" x="0" y="0" width="1200" height="800"/>
<g class="grid">
  <line x1="600.0" y1="-34.0" x2="-117.1" y2="380.0"/>
  <line x1="600.0" y1="-34.0" x2="1317.1" y2="380.0"/>
  <line x1="639.8" y1="-11.0" x2="-77.2" y2="403.0"/>
  <line x1="560.2" y1="-11.0" x2="1277.2" y2="403.0"/>
  <line x1="679.7" y1="12.0" x2="-37.4" y2="426.0"/>
  <line x1="520.3" y1="12.0" x2="1237.4" y2="426.0"/>
  <line x1="719.5" y1="35.0" x2="2.4" y2="449.0"/>
  <line x1="480.5" y1="35.0" x2="1197.6" y2="449.0"/>
  <line x1="759.3" y1="58.0" x2="42.3" y2="472.0"/>
  <line x1="440.7" y1="58.0" x2="1157.7" y2="472.0"/>
  <line x1="799.2" y1="81.0" x2="82.1" y2="495.0"/>
  <line x1="400.8" y1="81.0" x2="1117.9" y2="495.0"/>
  <line x1="839.0" y1="104.0" x2="122.0" y2="518.0"/>
  <line x1="361.0" y1="104.0" x2="1078.0" y2="518.0"/>
  <line x1="878.9" y1="127.0" x2="161.8" y2="541.0"/>
  <line x1="321.1" y1="127.0" x2="1038.2" y2="541.0"/>
  <line x1="918.7" y1="150.0" x2="201.6" y2="564.0"/>
  <line x1="281.3" y1="150.0" x2="998.4" y2="564.0"/>
  <line x1="958.5" y1="173.0" x2="241.5" y2="587.0"/>
  <line x1="241.5" y1="173.0" x2="958.5" y2="587.0"/>
  <line x1="998.4" y1="196.0" x2="281.3" y2="610.0"/>
  <line x1="201.6" y1="196.0" x2="918.7" y2="610.0"/>
  <line x1="1038.2" y1="219.0" x2="321.1" y2="633.0"/>
  <line x1="161.8" y1="219.0" x2="878.9" y2="633.0"/>
  <line x1="1078.0" y1="242.0" x2="361.0" y2="656.0"/>
  <line x1="122.0" y1="242.0" x2="839.0" y2="656.0"/>
  <line x1="1117.9" y1="265.0" x2="400.8" y2="679.0"/>
  <line x1="82.1" y1="265.0" x2="799.2" y2="679.0"/>
  <line x1="1157.7" y1="288.0" x2="440.7" y2="702.0"/>
  <line x1="42.3" y1="288.0" x2="759.3" y2="702.0"/>
  <line x1="1197.6" y1="311.0" x2="480.5" y2="725.0"/>
  <line x1="2.4" y1="311.0" x2="719.5" y2="725.0"/>
  <line x1="1237.4" y1="334.0" x2="520.3" y2="748.0"/>
  <line x1="-37.4" y1="334.0" x2="679.7" y2="748.0"/>
  <line x1="1277.2" y1="357.0" x2="560.2" y2="771.0"/>
  <line x1="-77.2" y1="357.0" x2="639.8" y2="771.0"/>
  <line x1="1317.1" y1="380.0" x2="600.0" y2="794.0"/>
  <line x1="-117.1" y1="380.0" x2="600.0" y2="794.0"/>
</g>
<ellipse class="dc-shadow"  cx="440.7" cy="245.0" rx="157.7" ry="91.1"/>
<ellipse class="dc-ground"  cx="440.7" cy="242.0"   rx="157.7" ry="91.1"/>
<ellipse class="dc-shadow"  cx="839.0" cy="291.0" rx="157.7" ry="91.1"/>
<ellipse class="dc-ground"  cx="839.0" cy="288.0"   rx="157.7" ry="91.1"/>
<ellipse class="dc-shadow"  cx="600.0" cy="567.0" rx="157.7" ry="91.1"/>
<ellipse class="dc-ground"  cx="600.0" cy="564.0"   rx="157.7" ry="91.1"/>
<polygon class="plinth-side"  points="460.0,194.3 415.8,219.8 415.8,211.1 460.0,185.5"/>
<polygon class="plinth-front" points="379.5,198.9 415.8,219.8 415.8,211.1 379.5,190.1"/>
<polygon class="plinth-top"   points="423.7,164.6 460.0,185.5 415.8,211.1 379.5,190.1"/>
<polygon class="rack-side"  points="453.6,185.5 415.8,207.4 415.8,126.4 453.6,104.6"/>
<polygon class="rack-top"   points="423.7,87.3 453.6,104.6 415.8,126.4 385.9,109.2"/>
<polygon class="rack-front" points="385.9,190.1 415.8,207.4 415.8,126.4 385.9,109.2"/>
<line class="rack-rail" x1="387.9" y1="189.0" x2="387.9" y2="112.6"/>
<line class="rack-rail" x1="413.8" y1="203.9" x2="413.8" y2="127.6"/>
<polygon class="server-panel" points="387.9,182.2 413.8,197.2 413.8,184.7 387.9,169.8"/>
<line class="server-edge-top" x1="387.9" y1="169.8" x2="413.8" y2="184.7"/>
<polygon class="server-bracket" points="387.1,179.3 387.9,179.7 387.9,172.3 387.1,171.8"/>
<polygon class="server-bracket" points="413.8,194.7 414.6,195.1 414.6,187.7 413.8,187.2"/>
<polygon class="tenant-a phase-0" points="390.1,180.9 394.3,183.3 394.3,176.1 390.1,173.7"/>
<polygon class="tenant-b phase-1" points="398.7,185.9 402.9,188.3 402.9,181.1 398.7,178.7"/>
<polygon class="tenant-c phase-2" points="407.4,190.9 411.5,193.2 411.5,186.0 407.4,183.6"/>
<polygon class="server-panel" points="387.9,165.4 413.8,180.4 413.8,167.9 387.9,153.0"/>
<line class="server-edge-top" x1="387.9" y1="153.0" x2="413.8" y2="167.9"/>
<polygon class="server-bracket" points="387.1,162.5 387.9,162.9 387.9,155.5 387.1,155.0"/>
<polygon class="server-bracket" points="413.8,177.9 414.6,178.3 414.6,170.9 413.8,170.4"/>
<polygon class="tenant-d phase-3" points="390.1,164.1 394.3,166.5 394.3,159.3 390.1,156.9"/>
<polygon class="tenant-e phase-4" points="398.7,169.1 402.9,171.5 402.9,164.3 398.7,161.9"/>
<polygon class="tenant-a phase-5" points="407.4,174.1 411.5,176.5 411.5,169.3 407.4,166.9"/>
<polygon class="server-panel" points="387.9,148.6 413.8,163.6 413.8,151.1 387.9,136.2"/>
<line class="server-edge-top" x1="387.9" y1="136.2" x2="413.8" y2="151.1"/>
<polygon class="server-bracket" points="387.1,145.7 387.9,146.1 387.9,138.7 387.1,138.2"/>
<polygon class="server-bracket" points="413.8,161.1 414.6,161.5 414.6,154.1 413.8,153.6"/>
<polygon class="runner-gitlab phase-6" points="390.1,147.3 394.3,149.7 394.3,142.5 390.1,140.1"/>
<polygon class="runner-github phase-7" points="398.7,152.3 402.9,154.7 402.9,147.5 398.7,145.1"/>
<polygon class="runner-forgejo phase-0" points="407.4,157.3 411.5,159.7 411.5,152.5 407.4,150.1"/>
<polygon class="server-panel" points="387.9,131.8 413.8,146.8 413.8,134.4 387.9,119.4"/>
<line class="server-edge-top" x1="387.9" y1="119.4" x2="413.8" y2="134.4"/>
<polygon class="server-bracket" points="387.1,128.9 387.9,129.3 387.9,121.9 387.1,121.4"/>
<polygon class="server-bracket" points="413.8,144.3 414.6,144.8 414.6,137.3 413.8,136.8"/>
<polygon class="mvm-infra phase-1" points="390.1,130.5 394.3,132.9 394.3,125.7 390.1,123.3"/>
<polygon class="mvm-infra phase-2" points="398.7,135.5 402.9,137.9 402.9,130.7 398.7,128.3"/>
<polygon class="mvm-infra phase-3" points="407.4,140.5 411.5,142.9 411.5,135.7 407.4,133.3"/>
<line class="rack-edge" x1="385.9" y1="109.2" x2="415.8" y2="126.4"/>
<line class="rack-edge" x1="453.6" y1="104.6" x2="415.8" y2="126.4"/>
<polygon class="plinth-side"  points="509.8,223.0 465.5,248.6 465.5,239.8 509.8,214.3"/>
<polygon class="plinth-front" points="429.3,227.6 465.5,248.6 465.5,239.8 429.3,218.9"/>
<polygon class="plinth-top"   points="473.5,193.4 509.8,214.3 465.5,239.8 429.3,218.9"/>
<polygon class="rack-side"  points="503.4,214.3 465.5,236.1 465.5,155.2 503.4,133.3"/>
<polygon class="rack-top"   points="473.5,116.1 503.4,133.3 465.5,155.2 435.7,137.9"/>
<polygon class="rack-front" points="435.7,218.9 465.5,236.1 465.5,155.2 435.7,137.9"/>
<line class="rack-rail" x1="437.7" y1="217.7" x2="437.7" y2="141.4"/>
<line class="rack-rail" x1="463.6" y1="232.7" x2="463.6" y2="156.3"/>
<polygon class="server-panel" points="437.7,211.0 463.6,225.9 463.6,213.5 437.7,198.5"/>
<line class="server-edge-top" x1="437.7" y1="198.5" x2="463.6" y2="213.5"/>
<polygon class="server-bracket" points="436.9,208.0 437.7,208.5 437.7,201.0 436.9,200.6"/>
<polygon class="server-bracket" points="463.6,223.4 464.4,223.9 464.4,216.4 463.6,216.0"/>
<polygon class="tenant-c phase-5" points="439.9,209.6 444.1,212.0 444.1,204.8 439.9,202.4"/>
<polygon class="tenant-d phase-6" points="448.5,214.6 452.7,217.0 452.7,209.8 448.5,207.4"/>
<polygon class="tenant-e phase-7" points="457.2,219.6 461.3,222.0 461.3,214.8 457.2,212.4"/>
<polygon class="server-panel" points="437.7,194.2 463.6,209.1 463.6,196.7 437.7,181.7"/>
<line class="server-edge-top" x1="437.7" y1="181.7" x2="463.6" y2="196.7"/>
<polygon class="server-bracket" points="436.9,191.2 437.7,191.7 437.7,184.2 436.9,183.8"/>
<polygon class="server-bracket" points="463.6,206.6 464.4,207.1 464.4,199.6 463.6,199.2"/>
<polygon class="tenant-a phase-0" points="439.9,192.8 444.1,195.2 444.1,188.0 439.9,185.6"/>
<polygon class="tenant-b phase-1" points="448.5,197.8 452.7,200.2 452.7,193.0 448.5,190.6"/>
<polygon class="tenant-c phase-2" points="457.2,202.8 461.3,205.2 461.3,198.0 457.2,195.6"/>
<polygon class="server-panel" points="437.7,177.4 463.6,192.3 463.6,179.9 437.7,164.9"/>
<line class="server-edge-top" x1="437.7" y1="164.9" x2="463.6" y2="179.9"/>
<polygon class="server-bracket" points="436.9,174.4 437.7,174.9 437.7,167.4 436.9,167.0"/>
<polygon class="server-bracket" points="463.6,189.8 464.4,190.3 464.4,182.8 463.6,182.4"/>
<polygon class="svc-cubefs phase-3" points="439.9,176.1 444.1,178.5 444.1,171.2 439.9,168.9"/>
<polygon class="svc-cubefs phase-4" points="448.5,181.0 452.7,183.4 452.7,176.2 448.5,173.8"/>
<polygon class="svc-cubefs phase-5" points="457.2,186.0 461.3,188.4 461.3,181.2 457.2,178.8"/>
<polygon class="server-panel" points="437.7,160.6 463.6,175.5 463.6,163.1 437.7,148.2"/>
<line class="server-edge-top" x1="437.7" y1="148.2" x2="463.6" y2="163.1"/>
<polygon class="server-bracket" points="436.9,157.6 437.7,158.1 437.7,150.6 436.9,150.2"/>
<polygon class="server-bracket" points="463.6,173.0 464.4,173.5 464.4,166.1 463.6,165.6"/>
<polygon class="mvm-infra phase-6" points="439.9,159.3 444.1,161.7 444.1,154.5 439.9,152.1"/>
<polygon class="mvm-infra phase-7" points="448.5,164.3 452.7,166.6 452.7,159.4 448.5,157.0"/>
<polygon class="mvm-infra phase-0" points="457.2,169.2 461.3,171.6 461.3,164.4 457.2,162.0"/>
<line class="rack-edge" x1="435.7" y1="137.9" x2="465.5" y2="155.2"/>
<line class="rack-edge" x1="503.4" y1="133.3" x2="465.5" y2="155.2"/>
<polygon class="plinth-side"  points="402.2,227.6 358.0,253.2 358.0,244.4 402.2,218.9"/>
<polygon class="plinth-front" points="321.7,232.2 358.0,253.2 358.0,244.4 321.7,223.5"/>
<polygon class="plinth-top"   points="366.0,198.0 402.2,218.9 358.0,244.4 321.7,223.5"/>
<polygon class="rack-side"  points="395.8,218.9 358.0,240.7 358.0,159.8 395.8,137.9"/>
<polygon class="rack-top"   points="366.0,120.7 395.8,137.9 358.0,159.8 328.1,142.5"/>
<polygon class="rack-front" points="328.1,223.5 358.0,240.7 358.0,159.8 328.1,142.5"/>
<line class="rack-rail" x1="330.1" y1="222.3" x2="330.1" y2="146.0"/>
<line class="rack-rail" x1="356.0" y1="237.3" x2="356.0" y2="160.9"/>
<polygon class="server-panel" points="330.1,215.6 356.0,230.5 356.0,218.1 330.1,203.1"/>
<line class="server-edge-top" x1="330.1" y1="203.1" x2="356.0" y2="218.1"/>
<polygon class="server-bracket" points="329.3,212.6 330.1,213.1 330.1,205.6 329.3,205.2"/>
<polygon class="server-bracket" points="356.0,228.0 356.8,228.5 356.8,221.0 356.0,220.6"/>
<polygon class="tenant-b phase-7" points="332.3,214.2 336.5,216.6 336.5,209.4 332.3,207.0"/>
<polygon class="tenant-c phase-0" points="341.0,219.2 345.1,221.6 345.1,214.4 341.0,212.0"/>
<polygon class="tenant-d phase-1" points="349.6,224.2 353.8,226.6 353.8,219.4 349.6,217.0"/>
<polygon class="server-panel" points="330.1,198.8 356.0,213.7 356.0,201.3 330.1,186.3"/>
<line class="server-edge-top" x1="330.1" y1="186.3" x2="356.0" y2="201.3"/>
<polygon class="server-bracket" points="329.3,195.8 330.1,196.3 330.1,188.8 329.3,188.4"/>
<polygon class="server-bracket" points="356.0,211.2 356.8,211.7 356.8,204.2 356.0,203.8"/>
<polygon class="tenant-e phase-2" points="332.3,197.4 336.5,199.8 336.5,192.6 332.3,190.2"/>
<polygon class="tenant-a phase-3" points="341.0,202.4 345.1,204.8 345.1,197.6 341.0,195.2"/>
<polygon class="tenant-b phase-4" points="349.6,207.4 353.8,209.8 353.8,202.6 349.6,200.2"/>
<polygon class="server-panel" points="330.1,182.0 356.0,196.9 356.0,184.5 330.1,169.5"/>
<line class="server-edge-top" x1="330.1" y1="169.5" x2="356.0" y2="184.5"/>
<polygon class="server-bracket" points="329.3,179.0 330.1,179.5 330.1,172.0 329.3,171.6"/>
<polygon class="server-bracket" points="356.0,194.4 356.8,194.9 356.8,187.4 356.0,187.0"/>
<polygon class="tenant-c phase-5" points="332.3,180.7 336.5,183.1 336.5,175.8 332.3,173.5"/>
<polygon class="tenant-d phase-6" points="341.0,185.6 345.1,188.0 345.1,180.8 341.0,178.4"/>
<polygon class="tenant-e phase-7" points="349.6,190.6 353.8,193.0 353.8,185.8 349.6,183.4"/>
<polygon class="server-panel" points="330.1,165.2 356.0,180.1 356.0,167.7 330.1,152.8"/>
<line class="server-edge-top" x1="330.1" y1="152.8" x2="356.0" y2="167.7"/>
<polygon class="server-bracket" points="329.3,162.2 330.1,162.7 330.1,155.2 329.3,154.8"/>
<polygon class="server-bracket" points="356.0,177.6 356.8,178.1 356.8,170.7 356.0,170.2"/>
<polygon class="mvm-infra phase-0" points="332.3,163.9 336.5,166.3 336.5,159.1 332.3,156.7"/>
<polygon class="mvm-infra phase-1" points="341.0,168.9 345.1,171.2 345.1,164.0 341.0,161.6"/>
<polygon class="mvm-infra phase-2" points="349.6,173.8 353.8,176.2 353.8,169.0 349.6,166.6"/>
<line class="rack-edge" x1="328.1" y1="142.5" x2="358.0" y2="159.8"/>
<line class="rack-edge" x1="395.8" y1="137.9" x2="358.0" y2="159.8"/>
<polygon class="plinth-side"  points="858.3,240.3 814.1,265.8 814.1,257.1 858.3,231.5"/>
<polygon class="plinth-front" points="777.9,244.9 814.1,265.8 814.1,257.1 777.9,236.1"/>
<polygon class="plinth-top"   points="822.1,210.6 858.3,231.5 814.1,257.1 777.9,236.1"/>
<polygon class="rack-side"  points="852.0,231.5 814.1,253.4 814.1,172.4 852.0,150.6"/>
<polygon class="rack-top"   points="822.1,133.3 852.0,150.6 814.1,172.4 784.2,155.2"/>
<polygon class="rack-front" points="784.2,236.1 814.1,253.4 814.1,172.4 784.2,155.2"/>
<line class="rack-rail" x1="786.2" y1="235.0" x2="786.2" y2="158.6"/>
<line class="rack-rail" x1="812.1" y1="249.9" x2="812.1" y2="173.6"/>
<polygon class="server-panel" points="786.2,228.2 812.1,243.2 812.1,230.7 786.2,215.8"/>
<line class="server-edge-top" x1="786.2" y1="215.8" x2="812.1" y2="230.7"/>
<polygon class="server-bracket" points="785.4,225.3 786.2,225.7 786.2,218.3 785.4,217.8"/>
<polygon class="server-bracket" points="812.1,240.7 812.9,241.1 812.9,233.7 812.1,233.2"/>
<polygon class="tenant-c phase-5" points="788.5,226.9 792.6,229.3 792.6,222.1 788.5,219.7"/>
<polygon class="tenant-d phase-6" points="797.1,231.9 801.3,234.3 801.3,227.1 797.1,224.7"/>
<polygon class="tenant-e phase-7" points="805.7,236.9 809.9,239.2 809.9,232.0 805.7,229.6"/>
<polygon class="server-panel" points="786.2,211.4 812.1,226.4 812.1,213.9 786.2,199.0"/>
<line class="server-edge-top" x1="786.2" y1="199.0" x2="812.1" y2="213.9"/>
<polygon class="server-bracket" points="785.4,208.5 786.2,208.9 786.2,201.5 785.4,201.0"/>
<polygon class="server-bracket" points="812.1,223.9 812.9,224.3 812.9,216.9 812.1,216.4"/>
<polygon class="tenant-a phase-0" points="788.5,210.1 792.6,212.5 792.6,205.3 788.5,202.9"/>
<polygon class="tenant-b phase-1" points="797.1,215.1 801.3,217.5 801.3,210.3 797.1,207.9"/>
<polygon class="tenant-c phase-2" points="805.7,220.1 809.9,222.5 809.9,215.3 805.7,212.9"/>
<polygon class="server-panel" points="786.2,194.6 812.1,209.6 812.1,197.1 786.2,182.2"/>
<line class="server-edge-top" x1="786.2" y1="182.2" x2="812.1" y2="197.1"/>
<polygon class="server-bracket" points="785.4,191.7 786.2,192.1 786.2,184.7 785.4,184.2"/>
<polygon class="server-bracket" points="812.1,207.1 812.9,207.5 812.9,200.1 812.1,199.6"/>
<polygon class="runner-gitlab phase-3" points="788.5,193.3 792.6,195.7 792.6,188.5 788.5,186.1"/>
<polygon class="runner-github phase-4" points="797.1,198.3 801.3,200.7 801.3,193.5 797.1,191.1"/>
<polygon class="runner-forgejo phase-5" points="805.7,203.3 809.9,205.7 809.9,198.5 805.7,196.1"/>
<polygon class="server-panel" points="786.2,177.8 812.1,192.8 812.1,180.4 786.2,165.4"/>
<line class="server-edge-top" x1="786.2" y1="165.4" x2="812.1" y2="180.4"/>
<polygon class="server-bracket" points="785.4,174.9 786.2,175.3 786.2,167.9 785.4,167.4"/>
<polygon class="server-bracket" points="812.1,190.3 812.9,190.8 812.9,183.3 812.1,182.8"/>
<polygon class="mvm-infra phase-6" points="788.5,176.5 792.6,178.9 792.6,171.7 788.5,169.3"/>
<polygon class="mvm-infra phase-7" points="797.1,181.5 801.3,183.9 801.3,176.7 797.1,174.3"/>
<polygon class="mvm-infra phase-0" points="805.7,186.5 809.9,188.9 809.9,181.7 805.7,179.3"/>
<line class="rack-edge" x1="784.2" y1="155.2" x2="814.1" y2="172.4"/>
<line class="rack-edge" x1="852.0" y1="150.6" x2="814.1" y2="172.4"/>
<polygon class="plinth-side"  points="559.6,251.8 515.3,277.3 515.3,268.6 559.6,243.0"/>
<polygon class="plinth-front" points="479.1,256.4 515.3,277.3 515.3,268.6 479.1,247.6"/>
<polygon class="plinth-top"   points="523.3,222.1 559.6,243.0 515.3,268.6 479.1,247.6"/>
<polygon class="rack-side"  points="553.2,243.0 515.3,264.9 515.3,183.9 553.2,162.1"/>
<polygon class="rack-top"   points="523.3,144.8 553.2,162.1 515.3,183.9 485.5,166.7"/>
<polygon class="rack-front" points="485.5,247.6 515.3,264.9 515.3,183.9 485.5,166.7"/>
<line class="rack-rail" x1="487.5" y1="246.5" x2="487.5" y2="170.1"/>
<line class="rack-rail" x1="513.4" y1="261.4" x2="513.4" y2="185.1"/>
<polygon class="server-panel" points="487.5,239.7 513.4,254.7 513.4,242.2 487.5,227.3"/>
<line class="server-edge-top" x1="487.5" y1="227.3" x2="513.4" y2="242.2"/>
<polygon class="server-bracket" points="486.7,236.8 487.5,237.2 487.5,229.8 486.7,229.3"/>
<polygon class="server-bracket" points="513.4,252.2 514.2,252.6 514.2,245.2 513.4,244.7"/>
<polygon class="tenant-e phase-2" points="489.7,238.4 493.8,240.8 493.8,233.6 489.7,231.2"/>
<polygon class="tenant-a phase-3" points="498.3,243.4 502.5,245.8 502.5,238.6 498.3,236.2"/>
<polygon class="mvm-ci phase-4" points="507.0,248.4 511.1,250.7 511.1,243.5 507.0,241.1"/>
<polygon class="server-panel" points="487.5,222.9 513.4,237.9 513.4,225.4 487.5,210.5"/>
<line class="server-edge-top" x1="487.5" y1="210.5" x2="513.4" y2="225.4"/>
<polygon class="server-bracket" points="486.7,220.0 487.5,220.4 487.5,213.0 486.7,212.5"/>
<polygon class="server-bracket" points="513.4,235.4 514.2,235.8 514.2,228.4 513.4,227.9"/>
<polygon class="tenant-c phase-5" points="489.7,221.6 493.8,224.0 493.8,216.8 489.7,214.4"/>
<polygon class="tenant-d phase-6" points="498.3,226.6 502.5,229.0 502.5,221.8 498.3,219.4"/>
<polygon class="tenant-e phase-7" points="507.0,231.6 511.1,234.0 511.1,226.8 507.0,224.4"/>
<polygon class="server-panel" points="487.5,206.1 513.4,221.1 513.4,208.6 487.5,193.7"/>
<line class="server-edge-top" x1="487.5" y1="193.7" x2="513.4" y2="208.6"/>
<polygon class="server-bracket" points="486.7,203.2 487.5,203.6 487.5,196.2 486.7,195.7"/>
<polygon class="server-bracket" points="513.4,218.6 514.2,219.0 514.2,211.6 513.4,211.1"/>
<polygon class="tenant-a phase-0" points="489.7,204.8 493.8,207.2 493.8,200.0 489.7,197.6"/>
<polygon class="tenant-b phase-1" points="498.3,209.8 502.5,212.2 502.5,205.0 498.3,202.6"/>
<polygon class="tenant-c phase-2" points="507.0,214.8 511.1,217.2 511.1,210.0 507.0,207.6"/>
<polygon class="server-panel" points="487.5,189.3 513.4,204.3 513.4,191.9 487.5,176.9"/>
<line class="server-edge-top" x1="487.5" y1="176.9" x2="513.4" y2="191.9"/>
<polygon class="server-bracket" points="486.7,186.4 487.5,186.8 487.5,179.4 486.7,178.9"/>
<polygon class="server-bracket" points="513.4,201.8 514.2,202.3 514.2,194.8 513.4,194.3"/>
<polygon class="mvm-infra phase-3" points="489.7,188.0 493.8,190.4 493.8,183.2 489.7,180.8"/>
<polygon class="mvm-infra phase-4" points="498.3,193.0 502.5,195.4 502.5,188.2 498.3,185.8"/>
<polygon class="mvm-infra phase-5" points="507.0,198.0 511.1,200.4 511.1,193.2 507.0,190.8"/>
<line class="rack-edge" x1="485.5" y1="166.7" x2="515.3" y2="183.9"/>
<line class="rack-edge" x1="553.2" y1="162.1" x2="515.3" y2="183.9"/>
<polygon class="plinth-side"  points="452.0,256.4 407.8,281.9 407.8,273.2 452.0,247.6"/>
<polygon class="plinth-front" points="371.5,261.0 407.8,281.9 407.8,273.2 371.5,252.2"/>
<polygon class="plinth-top"   points="415.8,226.7 452.0,247.6 407.8,273.2 371.5,252.2"/>
<polygon class="rack-side"  points="445.6,247.6 407.8,269.5 407.8,188.5 445.6,166.7"/>
<polygon class="rack-top"   points="415.8,149.4 445.6,166.7 407.8,188.5 377.9,171.3"/>
<polygon class="rack-front" points="377.9,252.2 407.8,269.5 407.8,188.5 377.9,171.3"/>
<line class="rack-rail" x1="379.9" y1="251.1" x2="379.9" y2="174.7"/>
<line class="rack-rail" x1="405.8" y1="266.0" x2="405.8" y2="189.7"/>
<polygon class="server-panel" points="379.9,244.3 405.8,259.3 405.8,246.8 379.9,231.9"/>
<line class="server-edge-top" x1="379.9" y1="231.9" x2="405.8" y2="246.8"/>
<polygon class="server-bracket" points="379.1,241.4 379.9,241.8 379.9,234.4 379.1,233.9"/>
<polygon class="server-bracket" points="405.8,256.8 406.6,257.2 406.6,249.8 405.8,249.3"/>
<polygon class="tenant-d phase-4" points="382.1,243.0 386.3,245.4 386.3,238.2 382.1,235.8"/>
<polygon class="tenant-e phase-5" points="390.8,248.0 394.9,250.4 394.9,243.2 390.8,240.8"/>
<polygon class="mvm-ci phase-6" points="399.4,253.0 403.5,255.3 403.5,248.1 399.4,245.7"/>
<polygon class="server-panel" points="379.9,227.5 405.8,242.5 405.8,230.0 379.9,215.1"/>
<line class="server-edge-top" x1="379.9" y1="215.1" x2="405.8" y2="230.0"/>
<polygon class="server-bracket" points="379.1,224.6 379.9,225.0 379.9,217.6 379.1,217.1"/>
<polygon class="server-bracket" points="405.8,240.0 406.6,240.4 406.6,233.0 405.8,232.5"/>
<polygon class="tenant-b phase-7" points="382.1,226.2 386.3,228.6 386.3,221.4 382.1,219.0"/>
<polygon class="tenant-c phase-0" points="390.8,231.2 394.9,233.6 394.9,226.4 390.8,224.0"/>
<polygon class="tenant-d phase-1" points="399.4,236.2 403.5,238.6 403.5,231.4 399.4,229.0"/>
<polygon class="server-panel" points="379.9,210.7 405.8,225.7 405.8,213.2 379.9,198.3"/>
<line class="server-edge-top" x1="379.9" y1="198.3" x2="405.8" y2="213.2"/>
<polygon class="server-bracket" points="379.1,207.8 379.9,208.2 379.9,200.8 379.1,200.3"/>
<polygon class="server-bracket" points="405.8,223.2 406.6,223.6 406.6,216.2 405.8,215.7"/>
<polygon class="tenant-e phase-2" points="382.1,209.4 386.3,211.8 386.3,204.6 382.1,202.2"/>
<polygon class="tenant-a phase-3" points="390.8,214.4 394.9,216.8 394.9,209.6 390.8,207.2"/>
<polygon class="tenant-b phase-4" points="399.4,219.4 403.5,221.8 403.5,214.6 399.4,212.2"/>
<polygon class="server-panel" points="379.9,193.9 405.8,208.9 405.8,196.5 379.9,181.5"/>
<line class="server-edge-top" x1="379.9" y1="181.5" x2="405.8" y2="196.5"/>
<polygon class="server-bracket" points="379.1,191.0 379.9,191.4 379.9,184.0 379.1,183.5"/>
<polygon class="server-bracket" points="405.8,206.4 406.6,206.9 406.6,199.4 405.8,198.9"/>
<polygon class="mvm-infra phase-5" points="382.1,192.6 386.3,195.0 386.3,187.8 382.1,185.4"/>
<polygon class="mvm-infra phase-6" points="390.8,197.6 394.9,200.0 394.9,192.8 390.8,190.4"/>
<polygon class="mvm-infra phase-7" points="399.4,202.6 403.5,205.0 403.5,197.8 399.4,195.4"/>
<line class="rack-edge" x1="377.9" y1="171.3" x2="407.8" y2="188.5"/>
<line class="rack-edge" x1="445.6" y1="166.7" x2="407.8" y2="188.5"/>
<polygon class="plinth-side"  points="908.1,269.0 863.9,294.6 863.9,285.8 908.1,260.3"/>
<polygon class="plinth-front" points="827.7,273.6 863.9,294.6 863.9,285.8 827.7,264.9"/>
<polygon class="plinth-top"   points="871.9,239.4 908.1,260.3 863.9,285.8 827.7,264.9"/>
<polygon class="rack-side"  points="901.8,260.3 863.9,282.1 863.9,201.2 901.8,179.3"/>
<polygon class="rack-top"   points="871.9,162.1 901.8,179.3 863.9,201.2 834.0,183.9"/>
<polygon class="rack-front" points="834.0,264.9 863.9,282.1 863.9,201.2 834.0,183.9"/>
<line class="rack-rail" x1="836.0" y1="263.7" x2="836.0" y2="187.4"/>
<line class="rack-rail" x1="861.9" y1="278.7" x2="861.9" y2="202.3"/>
<polygon class="server-panel" points="836.0,257.0 861.9,271.9 861.9,259.5 836.0,244.5"/>
<line class="server-edge-top" x1="836.0" y1="244.5" x2="861.9" y2="259.5"/>
<polygon class="server-bracket" points="835.2,254.0 836.0,254.5 836.0,247.0 835.2,246.6"/>
<polygon class="server-bracket" points="861.9,269.4 862.7,269.9 862.7,262.4 861.9,262.0"/>
<polygon class="tenant-e phase-2" points="838.3,255.6 842.4,258.0 842.4,250.8 838.3,248.4"/>
<polygon class="tenant-a phase-3" points="846.9,260.6 851.1,263.0 851.1,255.8 846.9,253.4"/>
<polygon class="tenant-b phase-4" points="855.5,265.6 859.7,268.0 859.7,260.8 855.5,258.4"/>
<polygon class="server-panel" points="836.0,240.2 861.9,255.1 861.9,242.7 836.0,227.7"/>
<line class="server-edge-top" x1="836.0" y1="227.7" x2="861.9" y2="242.7"/>
<polygon class="server-bracket" points="835.2,237.2 836.0,237.7 836.0,230.2 835.2,229.8"/>
<polygon class="server-bracket" points="861.9,252.6 862.7,253.1 862.7,245.6 861.9,245.2"/>
<polygon class="tenant-c phase-5" points="838.3,238.8 842.4,241.2 842.4,234.0 838.3,231.6"/>
<polygon class="tenant-d phase-6" points="846.9,243.8 851.1,246.2 851.1,239.0 846.9,236.6"/>
<polygon class="tenant-e phase-7" points="855.5,248.8 859.7,251.2 859.7,244.0 855.5,241.6"/>
<polygon class="server-panel" points="836.0,223.4 861.9,238.3 861.9,225.9 836.0,210.9"/>
<line class="server-edge-top" x1="836.0" y1="210.9" x2="861.9" y2="225.9"/>
<polygon class="server-bracket" points="835.2,220.4 836.0,220.9 836.0,213.4 835.2,213.0"/>
<polygon class="server-bracket" points="861.9,235.8 862.7,236.3 862.7,228.8 861.9,228.4"/>
<polygon class="svc-cubefs phase-0" points="838.3,222.1 842.4,224.5 842.4,217.2 838.3,214.9"/>
<polygon class="svc-cubefs phase-1" points="846.9,227.0 851.1,229.4 851.1,222.2 846.9,219.8"/>
<polygon class="svc-cubefs phase-2" points="855.5,232.0 859.7,234.4 859.7,227.2 855.5,224.8"/>
<polygon class="server-panel" points="836.0,206.6 861.9,221.5 861.9,209.1 836.0,194.2"/>
<line class="server-edge-top" x1="836.0" y1="194.2" x2="861.9" y2="209.1"/>
<polygon class="server-bracket" points="835.2,203.6 836.0,204.1 836.0,196.6 835.2,196.2"/>
<polygon class="server-bracket" points="861.9,219.0 862.7,219.5 862.7,212.1 861.9,211.6"/>
<polygon class="mvm-infra phase-3" points="838.3,205.3 842.4,207.7 842.4,200.5 838.3,198.1"/>
<polygon class="mvm-infra phase-4" points="846.9,210.3 851.1,212.6 851.1,205.4 846.9,203.0"/>
<polygon class="mvm-infra phase-5" points="855.5,215.2 859.7,217.6 859.7,210.4 855.5,208.0"/>
<line class="rack-edge" x1="834.0" y1="183.9" x2="863.9" y2="201.2"/>
<line class="rack-edge" x1="901.8" y1="179.3" x2="863.9" y2="201.2"/>
<polygon class="plinth-side"  points="800.6,273.6 756.4,299.2 756.4,290.4 800.6,264.9"/>
<polygon class="plinth-front" points="720.1,278.2 756.4,299.2 756.4,290.4 720.1,269.5"/>
<polygon class="plinth-top"   points="764.3,244.0 800.6,264.9 756.4,290.4 720.1,269.5"/>
<polygon class="rack-side"  points="794.2,264.9 756.4,286.7 756.4,205.8 794.2,183.9"/>
<polygon class="rack-top"   points="764.3,166.7 794.2,183.9 756.4,205.8 726.5,188.5"/>
<polygon class="rack-front" points="726.5,269.5 756.4,286.7 756.4,205.8 726.5,188.5"/>
<line class="rack-rail" x1="728.5" y1="268.3" x2="728.5" y2="192.0"/>
<line class="rack-rail" x1="754.4" y1="283.3" x2="754.4" y2="206.9"/>
<polygon class="server-panel" points="728.5,261.6 754.4,276.5 754.4,264.1 728.5,249.1"/>
<line class="server-edge-top" x1="728.5" y1="249.1" x2="754.4" y2="264.1"/>
<polygon class="server-bracket" points="727.7,258.6 728.5,259.1 728.5,251.6 727.7,251.2"/>
<polygon class="server-bracket" points="754.4,274.0 755.2,274.5 755.2,267.0 754.4,266.6"/>
<polygon class="tenant-d phase-4" points="730.7,260.2 734.9,262.6 734.9,255.4 730.7,253.0"/>
<polygon class="tenant-e phase-5" points="739.4,265.2 743.5,267.6 743.5,260.4 739.4,258.0"/>
<polygon class="tenant-a phase-6" points="748.0,270.2 752.1,272.6 752.1,265.4 748.0,263.0"/>
<polygon class="server-panel" points="728.5,244.8 754.4,259.7 754.4,247.3 728.5,232.3"/>
<line class="server-edge-top" x1="728.5" y1="232.3" x2="754.4" y2="247.3"/>
<polygon class="server-bracket" points="727.7,241.8 728.5,242.3 728.5,234.8 727.7,234.4"/>
<polygon class="server-bracket" points="754.4,257.2 755.2,257.7 755.2,250.2 754.4,249.8"/>
<polygon class="tenant-b phase-7" points="730.7,243.4 734.9,245.8 734.9,238.6 730.7,236.2"/>
<polygon class="tenant-c phase-0" points="739.4,248.4 743.5,250.8 743.5,243.6 739.4,241.2"/>
<polygon class="tenant-d phase-1" points="748.0,253.4 752.1,255.8 752.1,248.6 748.0,246.2"/>
<polygon class="server-panel" points="728.5,228.0 754.4,242.9 754.4,230.5 728.5,215.5"/>
<line class="server-edge-top" x1="728.5" y1="215.5" x2="754.4" y2="230.5"/>
<polygon class="server-bracket" points="727.7,225.0 728.5,225.5 728.5,218.0 727.7,217.6"/>
<polygon class="server-bracket" points="754.4,240.4 755.2,240.9 755.2,233.4 754.4,233.0"/>
<polygon class="tenant-e phase-2" points="730.7,226.7 734.9,229.1 734.9,221.8 730.7,219.5"/>
<polygon class="tenant-a phase-3" points="739.4,231.6 743.5,234.0 743.5,226.8 739.4,224.4"/>
<polygon class="tenant-b phase-4" points="748.0,236.6 752.1,239.0 752.1,231.8 748.0,229.4"/>
<polygon class="server-panel" points="728.5,211.2 754.4,226.1 754.4,213.7 728.5,198.8"/>
<line class="server-edge-top" x1="728.5" y1="198.8" x2="754.4" y2="213.7"/>
<polygon class="server-bracket" points="727.7,208.2 728.5,208.7 728.5,201.2 727.7,200.8"/>
<polygon class="server-bracket" points="754.4,223.6 755.2,224.1 755.2,216.7 754.4,216.2"/>
<polygon class="mvm-infra phase-5" points="730.7,209.9 734.9,212.3 734.9,205.1 730.7,202.7"/>
<polygon class="mvm-infra phase-6" points="739.4,214.9 743.5,217.2 743.5,210.0 739.4,207.6"/>
<polygon class="mvm-infra phase-7" points="748.0,219.8 752.1,222.2 752.1,215.0 748.0,212.6"/>
<line class="rack-edge" x1="726.5" y1="188.5" x2="756.4" y2="205.8"/>
<line class="rack-edge" x1="794.2" y1="183.9" x2="756.4" y2="205.8"/>
<polygon class="plinth-side"  points="501.8,285.1 457.6,310.7 457.6,301.9 501.8,276.4"/>
<polygon class="plinth-front" points="421.3,289.7 457.6,310.7 457.6,301.9 421.3,281.0"/>
<polygon class="plinth-top"   points="465.5,255.5 501.8,276.4 457.6,301.9 421.3,281.0"/>
<polygon class="rack-side"  points="495.4,276.4 457.6,298.2 457.6,217.3 495.4,195.4"/>
<polygon class="rack-top"   points="465.5,178.2 495.4,195.4 457.6,217.3 427.7,200.0"/>
<polygon class="rack-front" points="427.7,281.0 457.6,298.2 457.6,217.3 427.7,200.0"/>
<line class="rack-rail" x1="429.7" y1="279.8" x2="429.7" y2="203.5"/>
<line class="rack-rail" x1="455.6" y1="294.8" x2="455.6" y2="218.4"/>
<polygon class="server-panel" points="429.7,273.1 455.6,288.0 455.6,275.6 429.7,260.6"/>
<line class="server-edge-top" x1="429.7" y1="260.6" x2="455.6" y2="275.6"/>
<polygon class="server-bracket" points="428.9,270.1 429.7,270.6 429.7,263.1 428.9,262.7"/>
<polygon class="server-bracket" points="455.6,285.5 456.4,286.0 456.4,278.5 455.6,278.1"/>
<polygon class="tenant-a phase-1" points="431.9,271.7 436.1,274.1 436.1,266.9 431.9,264.5"/>
<polygon class="tenant-b phase-2" points="440.6,276.7 444.7,279.1 444.7,271.9 440.6,269.5"/>
<polygon class="tenant-c phase-3" points="449.2,281.7 453.3,284.1 453.3,276.9 449.2,274.5"/>
<polygon class="server-panel" points="429.7,256.3 455.6,271.2 455.6,258.8 429.7,243.8"/>
<line class="server-edge-top" x1="429.7" y1="243.8" x2="455.6" y2="258.8"/>
<polygon class="server-bracket" points="428.9,253.3 429.7,253.8 429.7,246.3 428.9,245.9"/>
<polygon class="server-bracket" points="455.6,268.7 456.4,269.2 456.4,261.7 455.6,261.3"/>
<polygon class="mvm-notebook phase-4" points="431.9,254.9 436.1,257.3 436.1,250.1 431.9,247.7"/>
<polygon class="mvm-notebook phase-5" points="440.6,259.9 444.7,262.3 444.7,255.1 440.6,252.7"/>
<polygon class="mvm-notebook phase-6" points="449.2,264.9 453.3,267.3 453.3,260.1 449.2,257.7"/>
<polygon class="server-panel" points="429.7,239.5 455.6,254.4 455.6,242.0 429.7,227.0"/>
<line class="server-edge-top" x1="429.7" y1="227.0" x2="455.6" y2="242.0"/>
<polygon class="server-bracket" points="428.9,236.5 429.7,237.0 429.7,229.5 428.9,229.1"/>
<polygon class="server-bracket" points="455.6,251.9 456.4,252.4 456.4,244.9 455.6,244.5"/>
<polygon class="tenant-b phase-7" points="431.9,238.2 436.1,240.6 436.1,233.3 431.9,231.0"/>
<polygon class="tenant-c phase-0" points="440.6,243.1 444.7,245.5 444.7,238.3 440.6,235.9"/>
<polygon class="tenant-d phase-1" points="449.2,248.1 453.3,250.5 453.3,243.3 449.2,240.9"/>
<polygon class="server-panel" points="429.7,222.7 455.6,237.6 455.6,225.2 429.7,210.3"/>
<line class="server-edge-top" x1="429.7" y1="210.3" x2="455.6" y2="225.2"/>
<polygon class="server-bracket" points="428.9,219.7 429.7,220.2 429.7,212.7 428.9,212.3"/>
<polygon class="server-bracket" points="455.6,235.1 456.4,235.6 456.4,228.2 455.6,227.7"/>
<polygon class="mvm-infra phase-2" points="431.9,221.4 436.1,223.8 436.1,216.6 431.9,214.2"/>
<polygon class="mvm-infra phase-3" points="440.6,226.4 444.7,228.7 444.7,221.5 440.6,219.1"/>
<polygon class="mvm-infra phase-4" points="449.2,231.3 453.3,233.7 453.3,226.5 449.2,224.1"/>
<line class="rack-edge" x1="427.7" y1="200.0" x2="457.6" y2="217.3"/>
<line class="rack-edge" x1="495.4" y1="195.4" x2="457.6" y2="217.3"/>
<polygon class="plinth-side"  points="957.9,297.8 913.7,323.3 913.7,314.6 957.9,289.0"/>
<polygon class="plinth-front" points="877.5,302.4 913.7,323.3 913.7,314.6 877.5,293.6"/>
<polygon class="plinth-top"   points="921.7,268.1 957.9,289.0 913.7,314.6 877.5,293.6"/>
<polygon class="rack-side"  points="951.6,289.0 913.7,310.9 913.7,229.9 951.6,208.1"/>
<polygon class="rack-top"   points="921.7,190.8 951.6,208.1 913.7,229.9 883.8,212.7"/>
<polygon class="rack-front" points="883.8,293.6 913.7,310.9 913.7,229.9 883.8,212.7"/>
<line class="rack-rail" x1="885.8" y1="292.5" x2="885.8" y2="216.1"/>
<line class="rack-rail" x1="911.7" y1="307.4" x2="911.7" y2="231.1"/>
<polygon class="server-panel" points="885.8,285.7 911.7,300.7 911.7,288.2 885.8,273.3"/>
<line class="server-edge-top" x1="885.8" y1="273.3" x2="911.7" y2="288.2"/>
<polygon class="server-bracket" points="885.0,282.8 885.8,283.2 885.8,275.8 885.0,275.3"/>
<polygon class="server-bracket" points="911.7,298.2 912.5,298.6 912.5,291.2 911.7,290.7"/>
<polygon class="tenant-b phase-7" points="888.1,284.4 892.2,286.8 892.2,279.6 888.1,277.2"/>
<polygon class="tenant-c phase-0" points="896.7,289.4 900.9,291.8 900.9,284.6 896.7,282.2"/>
<polygon class="mvm-ci phase-1" points="905.3,294.4 909.5,296.7 909.5,289.5 905.3,287.1"/>
<polygon class="server-panel" points="885.8,268.9 911.7,283.9 911.7,271.4 885.8,256.5"/>
<line class="server-edge-top" x1="885.8" y1="256.5" x2="911.7" y2="271.4"/>
<polygon class="server-bracket" points="885.0,266.0 885.8,266.4 885.8,259.0 885.0,258.5"/>
<polygon class="server-bracket" points="911.7,281.4 912.5,281.8 912.5,274.4 911.7,273.9"/>
<polygon class="tenant-e phase-2" points="888.1,267.6 892.2,270.0 892.2,262.8 888.1,260.4"/>
<polygon class="tenant-a phase-3" points="896.7,272.6 900.9,275.0 900.9,267.8 896.7,265.4"/>
<polygon class="tenant-b phase-4" points="905.3,277.6 909.5,280.0 909.5,272.8 905.3,270.4"/>
<polygon class="server-panel" points="885.8,252.1 911.7,267.1 911.7,254.6 885.8,239.7"/>
<line class="server-edge-top" x1="885.8" y1="239.7" x2="911.7" y2="254.6"/>
<polygon class="server-bracket" points="885.0,249.2 885.8,249.6 885.8,242.2 885.0,241.7"/>
<polygon class="server-bracket" points="911.7,264.6 912.5,265.0 912.5,257.6 911.7,257.1"/>
<polygon class="tenant-c phase-5" points="888.1,250.8 892.2,253.2 892.2,246.0 888.1,243.6"/>
<polygon class="tenant-d phase-6" points="896.7,255.8 900.9,258.2 900.9,251.0 896.7,248.6"/>
<polygon class="tenant-e phase-7" points="905.3,260.8 909.5,263.2 909.5,256.0 905.3,253.6"/>
<polygon class="server-panel" points="885.8,235.3 911.7,250.3 911.7,237.9 885.8,222.9"/>
<line class="server-edge-top" x1="885.8" y1="222.9" x2="911.7" y2="237.9"/>
<polygon class="server-bracket" points="885.0,232.4 885.8,232.8 885.8,225.4 885.0,224.9"/>
<polygon class="server-bracket" points="911.7,247.8 912.5,248.3 912.5,240.8 911.7,240.3"/>
<polygon class="mvm-infra phase-0" points="888.1,234.0 892.2,236.4 892.2,229.2 888.1,226.8"/>
<polygon class="mvm-infra phase-1" points="896.7,239.0 900.9,241.4 900.9,234.2 896.7,231.8"/>
<polygon class="mvm-infra phase-2" points="905.3,244.0 909.5,246.4 909.5,239.2 905.3,236.8"/>
<line class="rack-edge" x1="883.8" y1="212.7" x2="913.7" y2="229.9"/>
<line class="rack-edge" x1="951.6" y1="208.1" x2="913.7" y2="229.9"/>
<polygon class="plinth-side"  points="850.4,302.4 806.2,327.9 806.2,319.2 850.4,293.6"/>
<polygon class="plinth-front" points="769.9,307.0 806.2,327.9 806.2,319.2 769.9,298.2"/>
<polygon class="plinth-top"   points="814.1,272.7 850.4,293.6 806.2,319.2 769.9,298.2"/>
<polygon class="rack-side"  points="844.0,293.6 806.2,315.5 806.2,234.5 844.0,212.7"/>
<polygon class="rack-top"   points="814.1,195.4 844.0,212.7 806.2,234.5 776.3,217.3"/>
<polygon class="rack-front" points="776.3,298.2 806.2,315.5 806.2,234.5 776.3,217.3"/>
<line class="rack-rail" x1="778.3" y1="297.1" x2="778.3" y2="220.7"/>
<line class="rack-rail" x1="804.2" y1="312.0" x2="804.2" y2="235.7"/>
<polygon class="server-panel" points="778.3,290.3 804.2,305.3 804.2,292.8 778.3,277.9"/>
<line class="server-edge-top" x1="778.3" y1="277.9" x2="804.2" y2="292.8"/>
<polygon class="server-bracket" points="777.5,287.4 778.3,287.8 778.3,280.4 777.5,279.9"/>
<polygon class="server-bracket" points="804.2,302.8 805.0,303.2 805.0,295.8 804.2,295.3"/>
<polygon class="tenant-a phase-1" points="780.5,289.0 784.7,291.4 784.7,284.2 780.5,281.8"/>
<polygon class="tenant-b phase-2" points="789.1,294.0 793.3,296.4 793.3,289.2 789.1,286.8"/>
<polygon class="mvm-ci phase-3" points="797.8,299.0 801.9,301.3 801.9,294.1 797.8,291.7"/>
<polygon class="server-panel" points="778.3,273.5 804.2,288.5 804.2,276.0 778.3,261.1"/>
<line class="server-edge-top" x1="778.3" y1="261.1" x2="804.2" y2="276.0"/>
<polygon class="server-bracket" points="777.5,270.6 778.3,271.0 778.3,263.6 777.5,263.1"/>
<polygon class="server-bracket" points="804.2,286.0 805.0,286.4 805.0,279.0 804.2,278.5"/>
<polygon class="tenant-d phase-4" points="780.5,272.2 784.7,274.6 784.7,267.4 780.5,265.0"/>
<polygon class="tenant-e phase-5" points="789.1,277.2 793.3,279.6 793.3,272.4 789.1,270.0"/>
<polygon class="tenant-a phase-6" points="797.8,282.2 801.9,284.6 801.9,277.4 797.8,275.0"/>
<polygon class="server-panel" points="778.3,256.7 804.2,271.7 804.2,259.2 778.3,244.3"/>
<line class="server-edge-top" x1="778.3" y1="244.3" x2="804.2" y2="259.2"/>
<polygon class="server-bracket" points="777.5,253.8 778.3,254.2 778.3,246.8 777.5,246.3"/>
<polygon class="server-bracket" points="804.2,269.2 805.0,269.6 805.0,262.2 804.2,261.7"/>
<polygon class="tenant-b phase-7" points="780.5,255.4 784.7,257.8 784.7,250.6 780.5,248.2"/>
<polygon class="tenant-c phase-0" points="789.1,260.4 793.3,262.8 793.3,255.6 789.1,253.2"/>
<polygon class="tenant-d phase-1" points="797.8,265.4 801.9,267.8 801.9,260.6 797.8,258.2"/>
<polygon class="server-panel" points="778.3,239.9 804.2,254.9 804.2,242.5 778.3,227.5"/>
<line class="server-edge-top" x1="778.3" y1="227.5" x2="804.2" y2="242.5"/>
<polygon class="server-bracket" points="777.5,237.0 778.3,237.4 778.3,230.0 777.5,229.5"/>
<polygon class="server-bracket" points="804.2,252.4 805.0,252.9 805.0,245.4 804.2,244.9"/>
<polygon class="mvm-infra phase-2" points="780.5,238.6 784.7,241.0 784.7,233.8 780.5,231.4"/>
<polygon class="mvm-infra phase-3" points="789.1,243.6 793.3,246.0 793.3,238.8 789.1,236.4"/>
<polygon class="mvm-infra phase-4" points="797.8,248.6 801.9,251.0 801.9,243.8 797.8,241.4"/>
<line class="rack-edge" x1="776.3" y1="217.3" x2="806.2" y2="234.5"/>
<line class="rack-edge" x1="844.0" y1="212.7" x2="806.2" y2="234.5"/>
<polygon class="plinth-side"  points="900.2,331.1 856.0,356.7 856.0,347.9 900.2,322.4"/>
<polygon class="plinth-front" points="819.7,335.7 856.0,356.7 856.0,347.9 819.7,327.0"/>
<polygon class="plinth-top"   points="863.9,301.5 900.2,322.4 856.0,347.9 819.7,327.0"/>
<polygon class="rack-side"  points="893.8,322.4 856.0,344.2 856.0,263.3 893.8,241.4"/>
<polygon class="rack-top"   points="863.9,224.2 893.8,241.4 856.0,263.3 826.1,246.0"/>
<polygon class="rack-front" points="826.1,327.0 856.0,344.2 856.0,263.3 826.1,246.0"/>
<line class="rack-rail" x1="828.1" y1="325.8" x2="828.1" y2="249.5"/>
<line class="rack-rail" x1="854.0" y1="340.8" x2="854.0" y2="264.4"/>
<polygon class="server-panel" points="828.1,319.1 854.0,334.0 854.0,321.6 828.1,306.6"/>
<line class="server-edge-top" x1="828.1" y1="306.6" x2="854.0" y2="321.6"/>
<polygon class="server-bracket" points="827.3,316.1 828.1,316.6 828.1,309.1 827.3,308.7"/>
<polygon class="server-bracket" points="854.0,331.5 854.8,332.0 854.8,324.5 854.0,324.1"/>
<polygon class="tenant-c phase-6" points="830.3,317.7 834.5,320.1 834.5,312.9 830.3,310.5"/>
<polygon class="tenant-d phase-7" points="838.9,322.7 843.1,325.1 843.1,317.9 838.9,315.5"/>
<polygon class="tenant-e phase-0" points="847.6,327.7 851.7,330.1 851.7,322.9 847.6,320.5"/>
<polygon class="server-panel" points="828.1,302.3 854.0,317.2 854.0,304.8 828.1,289.8"/>
<line class="server-edge-top" x1="828.1" y1="289.8" x2="854.0" y2="304.8"/>
<polygon class="server-bracket" points="827.3,299.3 828.1,299.8 828.1,292.3 827.3,291.9"/>
<polygon class="server-bracket" points="854.0,314.7 854.8,315.2 854.8,307.7 854.0,307.3"/>
<polygon class="mvm-notebook phase-1" points="830.3,300.9 834.5,303.3 834.5,296.1 830.3,293.7"/>
<polygon class="mvm-notebook phase-2" points="838.9,305.9 843.1,308.3 843.1,301.1 838.9,298.7"/>
<polygon class="mvm-notebook phase-3" points="847.6,310.9 851.7,313.3 851.7,306.1 847.6,303.7"/>
<polygon class="server-panel" points="828.1,285.5 854.0,300.4 854.0,288.0 828.1,273.0"/>
<line class="server-edge-top" x1="828.1" y1="273.0" x2="854.0" y2="288.0"/>
<polygon class="server-bracket" points="827.3,282.5 828.1,283.0 828.1,275.5 827.3,275.1"/>
<polygon class="server-bracket" points="854.0,297.9 854.8,298.4 854.8,290.9 854.0,290.5"/>
<polygon class="tenant-d phase-4" points="830.3,284.2 834.5,286.6 834.5,279.3 830.3,277.0"/>
<polygon class="tenant-e phase-5" points="838.9,289.1 843.1,291.5 843.1,284.3 838.9,281.9"/>
<polygon class="tenant-a phase-6" points="847.6,294.1 851.7,296.5 851.7,289.3 847.6,286.9"/>
<polygon class="server-panel" points="828.1,268.7 854.0,283.6 854.0,271.2 828.1,256.3"/>
<line class="server-edge-top" x1="828.1" y1="256.3" x2="854.0" y2="271.2"/>
<polygon class="server-bracket" points="827.3,265.7 828.1,266.2 828.1,258.7 827.3,258.3"/>
<polygon class="server-bracket" points="854.0,281.1 854.8,281.6 854.8,274.2 854.0,273.7"/>
<polygon class="mvm-infra phase-7" points="830.3,267.4 834.5,269.8 834.5,262.6 830.3,260.2"/>
<polygon class="mvm-infra phase-0" points="838.9,272.4 843.1,274.7 843.1,267.5 838.9,265.1"/>
<polygon class="mvm-infra phase-1" points="847.6,277.3 851.7,279.7 851.7,272.5 847.6,270.1"/>
<line class="rack-edge" x1="826.1" y1="246.0" x2="856.0" y2="263.3"/>
<line class="rack-edge" x1="893.8" y1="241.4" x2="856.0" y2="263.3"/>
<polygon class="plinth-side"  points="619.3,516.3 575.1,541.8 575.1,533.1 619.3,507.5"/>
<polygon class="plinth-front" points="538.8,520.9 575.1,541.8 575.1,533.1 538.8,512.1"/>
<polygon class="plinth-top"   points="583.1,486.6 619.3,507.5 575.1,533.1 538.8,512.1"/>
<polygon class="rack-side"  points="612.9,507.5 575.1,529.4 575.1,448.4 612.9,426.6"/>
<polygon class="rack-top"   points="583.1,409.3 612.9,426.6 575.1,448.4 545.2,431.2"/>
<polygon class="rack-front" points="545.2,512.1 575.1,529.4 575.1,448.4 545.2,431.2"/>
<line class="rack-rail" x1="547.2" y1="511.0" x2="547.2" y2="434.6"/>
<line class="rack-rail" x1="573.1" y1="525.9" x2="573.1" y2="449.6"/>
<polygon class="server-panel" points="547.2,504.2 573.1,519.2 573.1,506.7 547.2,491.8"/>
<line class="server-edge-top" x1="547.2" y1="491.8" x2="573.1" y2="506.7"/>
<polygon class="server-bracket" points="546.4,501.3 547.2,501.7 547.2,494.3 546.4,493.8"/>
<polygon class="server-bracket" points="573.1,516.7 573.9,517.1 573.9,509.7 573.1,509.2"/>
<polygon class="tenant-e phase-2" points="549.5,502.9 553.6,505.3 553.6,498.1 549.5,495.7"/>
<polygon class="tenant-a phase-3" points="558.1,507.9 562.2,510.3 562.2,503.1 558.1,500.7"/>
<polygon class="tenant-b phase-4" points="566.7,512.9 570.9,515.2 570.9,508.0 566.7,505.6"/>
<polygon class="server-panel" points="547.2,487.4 573.1,502.4 573.1,489.9 547.2,475.0"/>
<line class="server-edge-top" x1="547.2" y1="475.0" x2="573.1" y2="489.9"/>
<polygon class="server-bracket" points="546.4,484.5 547.2,484.9 547.2,477.5 546.4,477.0"/>
<polygon class="server-bracket" points="573.1,499.9 573.9,500.3 573.9,492.9 573.1,492.4"/>
<polygon class="tenant-c phase-5" points="549.5,486.1 553.6,488.5 553.6,481.3 549.5,478.9"/>
<polygon class="tenant-d phase-6" points="558.1,491.1 562.2,493.5 562.2,486.3 558.1,483.9"/>
<polygon class="tenant-e phase-7" points="566.7,496.1 570.9,498.5 570.9,491.3 566.7,488.9"/>
<polygon class="server-panel" points="547.2,470.6 573.1,485.6 573.1,473.1 547.2,458.2"/>
<line class="server-edge-top" x1="547.2" y1="458.2" x2="573.1" y2="473.1"/>
<polygon class="server-bracket" points="546.4,467.7 547.2,468.1 547.2,460.7 546.4,460.2"/>
<polygon class="server-bracket" points="573.1,483.1 573.9,483.5 573.9,476.1 573.1,475.6"/>
<polygon class="runner-gitlab phase-0" points="549.5,469.3 553.6,471.7 553.6,464.5 549.5,462.1"/>
<polygon class="runner-github phase-1" points="558.1,474.3 562.2,476.7 562.2,469.5 558.1,467.1"/>
<polygon class="runner-forgejo phase-2" points="566.7,479.3 570.9,481.7 570.9,474.5 566.7,472.1"/>
<polygon class="server-panel" points="547.2,453.8 573.1,468.8 573.1,456.4 547.2,441.4"/>
<line class="server-edge-top" x1="547.2" y1="441.4" x2="573.1" y2="456.4"/>
<polygon class="server-bracket" points="546.4,450.9 547.2,451.3 547.2,443.9 546.4,443.4"/>
<polygon class="server-bracket" points="573.1,466.3 573.9,466.8 573.9,459.3 573.1,458.8"/>
<polygon class="mvm-infra phase-3" points="549.5,452.5 553.6,454.9 553.6,447.7 549.5,445.3"/>
<polygon class="mvm-infra phase-4" points="558.1,457.5 562.2,459.9 562.2,452.7 558.1,450.3"/>
<polygon class="mvm-infra phase-5" points="566.7,462.5 570.9,464.9 570.9,457.7 566.7,455.3"/>
<line class="rack-edge" x1="545.2" y1="431.2" x2="575.1" y2="448.4"/>
<line class="rack-edge" x1="612.9" y1="426.6" x2="575.1" y2="448.4"/>
<polygon class="plinth-side"  points="669.1,545.0 624.9,570.6 624.9,561.8 669.1,536.3"/>
<polygon class="plinth-front" points="588.6,549.6 624.9,570.6 624.9,561.8 588.6,540.9"/>
<polygon class="plinth-top"   points="632.9,515.4 669.1,536.3 624.9,561.8 588.6,540.9"/>
<polygon class="rack-side"  points="662.7,536.3 624.9,558.1 624.9,477.2 662.7,455.3"/>
<polygon class="rack-top"   points="632.9,438.1 662.7,455.3 624.9,477.2 595.0,459.9"/>
<polygon class="rack-front" points="595.0,540.9 624.9,558.1 624.9,477.2 595.0,459.9"/>
<line class="rack-rail" x1="597.0" y1="539.7" x2="597.0" y2="463.4"/>
<line class="rack-rail" x1="622.9" y1="554.7" x2="622.9" y2="478.3"/>
<polygon class="server-panel" points="597.0,533.0 622.9,547.9 622.9,535.5 597.0,520.5"/>
<line class="server-edge-top" x1="597.0" y1="520.5" x2="622.9" y2="535.5"/>
<polygon class="server-bracket" points="596.2,530.0 597.0,530.5 597.0,523.0 596.2,522.6"/>
<polygon class="server-bracket" points="622.9,545.4 623.7,545.9 623.7,538.4 622.9,538.0"/>
<polygon class="tenant-b phase-7" points="599.3,531.6 603.4,534.0 603.4,526.8 599.3,524.4"/>
<polygon class="tenant-c phase-0" points="607.9,536.6 612.0,539.0 612.0,531.8 607.9,529.4"/>
<polygon class="tenant-d phase-1" points="616.5,541.6 620.7,544.0 620.7,536.8 616.5,534.4"/>
<polygon class="server-panel" points="597.0,516.2 622.9,531.1 622.9,518.7 597.0,503.7"/>
<line class="server-edge-top" x1="597.0" y1="503.7" x2="622.9" y2="518.7"/>
<polygon class="server-bracket" points="596.2,513.2 597.0,513.7 597.0,506.2 596.2,505.8"/>
<polygon class="server-bracket" points="622.9,528.6 623.7,529.1 623.7,521.6 622.9,521.2"/>
<polygon class="tenant-e phase-2" points="599.3,514.8 603.4,517.2 603.4,510.0 599.3,507.6"/>
<polygon class="tenant-a phase-3" points="607.9,519.8 612.0,522.2 612.0,515.0 607.9,512.6"/>
<polygon class="tenant-b phase-4" points="616.5,524.8 620.7,527.2 620.7,520.0 616.5,517.6"/>
<polygon class="server-panel" points="597.0,499.4 622.9,514.3 622.9,501.9 597.0,486.9"/>
<line class="server-edge-top" x1="597.0" y1="486.9" x2="622.9" y2="501.9"/>
<polygon class="server-bracket" points="596.2,496.4 597.0,496.9 597.0,489.4 596.2,489.0"/>
<polygon class="server-bracket" points="622.9,511.8 623.7,512.3 623.7,504.8 622.9,504.4"/>
<polygon class="svc-cubefs phase-5" points="599.3,498.1 603.4,500.5 603.4,493.2 599.3,490.9"/>
<polygon class="svc-cubefs phase-6" points="607.9,503.0 612.0,505.4 612.0,498.2 607.9,495.8"/>
<polygon class="svc-cubefs phase-7" points="616.5,508.0 620.7,510.4 620.7,503.2 616.5,500.8"/>
<polygon class="server-panel" points="597.0,482.6 622.9,497.5 622.9,485.1 597.0,470.2"/>
<line class="server-edge-top" x1="597.0" y1="470.2" x2="622.9" y2="485.1"/>
<polygon class="server-bracket" points="596.2,479.6 597.0,480.1 597.0,472.6 596.2,472.2"/>
<polygon class="server-bracket" points="622.9,495.0 623.7,495.5 623.7,488.1 622.9,487.6"/>
<polygon class="mvm-infra phase-0" points="599.3,481.3 603.4,483.7 603.4,476.5 599.3,474.1"/>
<polygon class="mvm-infra phase-1" points="607.9,486.3 612.0,488.6 612.0,481.4 607.9,479.0"/>
<polygon class="mvm-infra phase-2" points="616.5,491.2 620.7,493.6 620.7,486.4 616.5,484.0"/>
<line class="rack-edge" x1="595.0" y1="459.9" x2="624.9" y2="477.2"/>
<line class="rack-edge" x1="662.7" y1="455.3" x2="624.9" y2="477.2"/>
<polygon class="plinth-side"  points="561.6,549.6 517.3,575.2 517.3,566.4 561.6,540.9"/>
<polygon class="plinth-front" points="481.1,554.2 517.3,575.2 517.3,566.4 481.1,545.5"/>
<polygon class="plinth-top"   points="525.3,520.0 561.6,540.9 517.3,566.4 481.1,545.5"/>
<polygon class="rack-side"  points="555.2,540.9 517.3,562.7 517.3,481.8 555.2,459.9"/>
<polygon class="rack-top"   points="525.3,442.7 555.2,459.9 517.3,481.8 487.5,464.5"/>
<polygon class="rack-front" points="487.5,545.5 517.3,562.7 517.3,481.8 487.5,464.5"/>
<line class="rack-rail" x1="489.5" y1="544.3" x2="489.5" y2="468.0"/>
<line class="rack-rail" x1="515.3" y1="559.3" x2="515.3" y2="482.9"/>
<polygon class="server-panel" points="489.5,537.6 515.3,552.5 515.3,540.1 489.5,525.1"/>
<line class="server-edge-top" x1="489.5" y1="525.1" x2="515.3" y2="540.1"/>
<polygon class="server-bracket" points="488.7,534.6 489.5,535.1 489.5,527.6 488.7,527.2"/>
<polygon class="server-bracket" points="515.3,550.0 516.1,550.5 516.1,543.0 515.3,542.6"/>
<polygon class="tenant-a phase-1" points="491.7,536.2 495.8,538.6 495.8,531.4 491.7,529.0"/>
<polygon class="tenant-b phase-2" points="500.3,541.2 504.5,543.6 504.5,536.4 500.3,534.0"/>
<polygon class="tenant-c phase-3" points="509.0,546.2 513.1,548.6 513.1,541.4 509.0,539.0"/>
<polygon class="server-panel" points="489.5,520.8 515.3,535.7 515.3,523.3 489.5,508.3"/>
<line class="server-edge-top" x1="489.5" y1="508.3" x2="515.3" y2="523.3"/>
<polygon class="server-bracket" points="488.7,517.8 489.5,518.3 489.5,510.8 488.7,510.4"/>
<polygon class="server-bracket" points="515.3,533.2 516.1,533.7 516.1,526.2 515.3,525.8"/>
<polygon class="tenant-d phase-4" points="491.7,519.4 495.8,521.8 495.8,514.6 491.7,512.2"/>
<polygon class="tenant-e phase-5" points="500.3,524.4 504.5,526.8 504.5,519.6 500.3,517.2"/>
<polygon class="tenant-a phase-6" points="509.0,529.4 513.1,531.8 513.1,524.6 509.0,522.2"/>
<polygon class="server-panel" points="489.5,504.0 515.3,518.9 515.3,506.5 489.5,491.5"/>
<line class="server-edge-top" x1="489.5" y1="491.5" x2="515.3" y2="506.5"/>
<polygon class="server-bracket" points="488.7,501.0 489.5,501.5 489.5,494.0 488.7,493.6"/>
<polygon class="server-bracket" points="515.3,516.4 516.1,516.9 516.1,509.4 515.3,509.0"/>
<polygon class="tenant-b phase-7" points="491.7,502.7 495.8,505.1 495.8,497.8 491.7,495.5"/>
<polygon class="tenant-c phase-0" points="500.3,507.6 504.5,510.0 504.5,502.8 500.3,500.4"/>
<polygon class="tenant-d phase-1" points="509.0,512.6 513.1,515.0 513.1,507.8 509.0,505.4"/>
<polygon class="server-panel" points="489.5,487.2 515.3,502.1 515.3,489.7 489.5,474.8"/>
<line class="server-edge-top" x1="489.5" y1="474.8" x2="515.3" y2="489.7"/>
<polygon class="server-bracket" points="488.7,484.2 489.5,484.7 489.5,477.2 488.7,476.8"/>
<polygon class="server-bracket" points="515.3,499.6 516.1,500.1 516.1,492.7 515.3,492.2"/>
<polygon class="mvm-infra phase-2" points="491.7,485.9 495.8,488.3 495.8,481.1 491.7,478.7"/>
<polygon class="mvm-infra phase-3" points="500.3,490.9 504.5,493.2 504.5,486.0 500.3,483.6"/>
<polygon class="mvm-infra phase-4" points="509.0,495.8 513.1,498.2 513.1,491.0 509.0,488.6"/>
<line class="rack-edge" x1="487.5" y1="464.5" x2="517.3" y2="481.8"/>
<line class="rack-edge" x1="555.2" y1="459.9" x2="517.3" y2="481.8"/>
<polygon class="plinth-side"  points="718.9,573.8 674.7,599.3 674.7,590.6 718.9,565.0"/>
<polygon class="plinth-front" points="638.4,578.4 674.7,599.3 674.7,590.6 638.4,569.6"/>
<polygon class="plinth-top"   points="682.7,544.1 718.9,565.0 674.7,590.6 638.4,569.6"/>
<polygon class="rack-side"  points="712.5,565.0 674.7,586.9 674.7,505.9 712.5,484.1"/>
<polygon class="rack-top"   points="682.7,466.8 712.5,484.1 674.7,505.9 644.8,488.7"/>
<polygon class="rack-front" points="644.8,569.6 674.7,586.9 674.7,505.9 644.8,488.7"/>
<line class="rack-rail" x1="646.8" y1="568.5" x2="646.8" y2="492.1"/>
<line class="rack-rail" x1="672.7" y1="583.4" x2="672.7" y2="507.1"/>
<polygon class="server-panel" points="646.8,561.7 672.7,576.7 672.7,564.2 646.8,549.3"/>
<line class="server-edge-top" x1="646.8" y1="549.3" x2="672.7" y2="564.2"/>
<polygon class="server-bracket" points="646.0,558.8 646.8,559.2 646.8,551.8 646.0,551.3"/>
<polygon class="server-bracket" points="672.7,574.2 673.5,574.6 673.5,567.2 672.7,566.7"/>
<polygon class="tenant-d phase-4" points="649.1,560.4 653.2,562.8 653.2,555.6 649.1,553.2"/>
<polygon class="tenant-e phase-5" points="657.7,565.4 661.8,567.8 661.8,560.6 657.7,558.2"/>
<polygon class="mvm-ci phase-6" points="666.3,570.4 670.5,572.7 670.5,565.5 666.3,563.1"/>
<polygon class="server-panel" points="646.8,544.9 672.7,559.9 672.7,547.4 646.8,532.5"/>
<line class="server-edge-top" x1="646.8" y1="532.5" x2="672.7" y2="547.4"/>
<polygon class="server-bracket" points="646.0,542.0 646.8,542.4 646.8,535.0 646.0,534.5"/>
<polygon class="server-bracket" points="672.7,557.4 673.5,557.8 673.5,550.4 672.7,549.9"/>
<polygon class="tenant-b phase-7" points="649.1,543.6 653.2,546.0 653.2,538.8 649.1,536.4"/>
<polygon class="tenant-c phase-0" points="657.7,548.6 661.8,551.0 661.8,543.8 657.7,541.4"/>
<polygon class="tenant-d phase-1" points="666.3,553.6 670.5,556.0 670.5,548.8 666.3,546.4"/>
<polygon class="server-panel" points="646.8,528.1 672.7,543.1 672.7,530.6 646.8,515.7"/>
<line class="server-edge-top" x1="646.8" y1="515.7" x2="672.7" y2="530.6"/>
<polygon class="server-bracket" points="646.0,525.2 646.8,525.6 646.8,518.2 646.0,517.7"/>
<polygon class="server-bracket" points="672.7,540.6 673.5,541.0 673.5,533.6 672.7,533.1"/>
<polygon class="tenant-e phase-2" points="649.1,526.8 653.2,529.2 653.2,522.0 649.1,519.6"/>
<polygon class="tenant-a phase-3" points="657.7,531.8 661.8,534.2 661.8,527.0 657.7,524.6"/>
<polygon class="tenant-b phase-4" points="666.3,536.8 670.5,539.2 670.5,532.0 666.3,529.6"/>
<polygon class="server-panel" points="646.8,511.3 672.7,526.3 672.7,513.9 646.8,498.9"/>
<line class="server-edge-top" x1="646.8" y1="498.9" x2="672.7" y2="513.9"/>
<polygon class="server-bracket" points="646.0,508.4 646.8,508.8 646.8,501.4 646.0,500.9"/>
<polygon class="server-bracket" points="672.7,523.8 673.5,524.3 673.5,516.8 672.7,516.3"/>
<polygon class="mvm-infra phase-5" points="649.1,510.0 653.2,512.4 653.2,505.2 649.1,502.8"/>
<polygon class="mvm-infra phase-6" points="657.7,515.0 661.8,517.4 661.8,510.2 657.7,507.8"/>
<polygon class="mvm-infra phase-7" points="666.3,520.0 670.5,522.4 670.5,515.2 666.3,512.8"/>
<line class="rack-edge" x1="644.8" y1="488.7" x2="674.7" y2="505.9"/>
<line class="rack-edge" x1="712.5" y1="484.1" x2="674.7" y2="505.9"/>
<polygon class="plinth-side"  points="611.4,578.4 567.1,603.9 567.1,595.2 611.4,569.6"/>
<polygon class="plinth-front" points="530.9,583.0 567.1,603.9 567.1,595.2 530.9,574.2"/>
<polygon class="plinth-top"   points="575.1,548.7 611.4,569.6 567.1,595.2 530.9,574.2"/>
<polygon class="rack-side"  points="605.0,569.6 567.1,591.5 567.1,510.5 605.0,488.7"/>
<polygon class="rack-top"   points="575.1,471.4 605.0,488.7 567.1,510.5 537.3,493.3"/>
<polygon class="rack-front" points="537.3,574.2 567.1,591.5 567.1,510.5 537.3,493.3"/>
<line class="rack-rail" x1="539.2" y1="573.1" x2="539.2" y2="496.7"/>
<line class="rack-rail" x1="565.1" y1="588.0" x2="565.1" y2="511.7"/>
<polygon class="server-panel" points="539.2,566.3 565.1,581.3 565.1,568.8 539.2,553.9"/>
<line class="server-edge-top" x1="539.2" y1="553.9" x2="565.1" y2="568.8"/>
<polygon class="server-bracket" points="538.5,563.4 539.2,563.8 539.2,556.4 538.5,555.9"/>
<polygon class="server-bracket" points="565.1,578.8 565.9,579.2 565.9,571.8 565.1,571.3"/>
<polygon class="tenant-c phase-6" points="541.5,565.0 545.6,567.4 545.6,560.2 541.5,557.8"/>
<polygon class="tenant-d phase-7" points="550.1,570.0 554.3,572.4 554.3,565.2 550.1,562.8"/>
<polygon class="mvm-ci phase-0" points="558.8,575.0 562.9,577.3 562.9,570.1 558.8,567.7"/>
<polygon class="server-panel" points="539.2,549.5 565.1,564.5 565.1,552.0 539.2,537.1"/>
<line class="server-edge-top" x1="539.2" y1="537.1" x2="565.1" y2="552.0"/>
<polygon class="server-bracket" points="538.5,546.6 539.2,547.0 539.2,539.6 538.5,539.1"/>
<polygon class="server-bracket" points="565.1,562.0 565.9,562.4 565.9,555.0 565.1,554.5"/>
<polygon class="tenant-a phase-1" points="541.5,548.2 545.6,550.6 545.6,543.4 541.5,541.0"/>
<polygon class="tenant-b phase-2" points="550.1,553.2 554.3,555.6 554.3,548.4 550.1,546.0"/>
<polygon class="tenant-c phase-3" points="558.8,558.2 562.9,560.6 562.9,553.4 558.8,551.0"/>
<polygon class="server-panel" points="539.2,532.7 565.1,547.7 565.1,535.2 539.2,520.3"/>
<line class="server-edge-top" x1="539.2" y1="520.3" x2="565.1" y2="535.2"/>
<polygon class="server-bracket" points="538.5,529.8 539.2,530.2 539.2,522.8 538.5,522.3"/>
<polygon class="server-bracket" points="565.1,545.2 565.9,545.6 565.9,538.2 565.1,537.7"/>
<polygon class="tenant-d phase-4" points="541.5,531.4 545.6,533.8 545.6,526.6 541.5,524.2"/>
<polygon class="tenant-e phase-5" points="550.1,536.4 554.3,538.8 554.3,531.6 550.1,529.2"/>
<polygon class="tenant-a phase-6" points="558.8,541.4 562.9,543.8 562.9,536.6 558.8,534.2"/>
<polygon class="server-panel" points="539.2,515.9 565.1,530.9 565.1,518.5 539.2,503.5"/>
<line class="server-edge-top" x1="539.2" y1="503.5" x2="565.1" y2="518.5"/>
<polygon class="server-bracket" points="538.5,513.0 539.2,513.4 539.2,506.0 538.5,505.5"/>
<polygon class="server-bracket" points="565.1,528.4 565.9,528.9 565.9,521.4 565.1,520.9"/>
<polygon class="mvm-infra phase-7" points="541.5,514.6 545.6,517.0 545.6,509.8 541.5,507.4"/>
<polygon class="mvm-infra phase-0" points="550.1,519.6 554.3,522.0 554.3,514.8 550.1,512.4"/>
<polygon class="mvm-infra phase-1" points="558.8,524.6 562.9,527.0 562.9,519.8 558.8,517.4"/>
<line class="rack-edge" x1="537.3" y1="493.3" x2="567.1" y2="510.5"/>
<line class="rack-edge" x1="605.0" y1="488.7" x2="567.1" y2="510.5"/>
<polygon class="plinth-side"  points="661.2,607.1 616.9,632.7 616.9,623.9 661.2,598.4"/>
<polygon class="plinth-front" points="580.7,611.7 616.9,632.7 616.9,623.9 580.7,603.0"/>
<polygon class="plinth-top"   points="624.9,577.5 661.2,598.4 616.9,623.9 580.7,603.0"/>
<polygon class="rack-side"  points="654.8,598.4 616.9,620.2 616.9,539.3 654.8,517.4"/>
<polygon class="rack-top"   points="624.9,500.2 654.8,517.4 616.9,539.3 587.1,522.0"/>
<polygon class="rack-front" points="587.1,603.0 616.9,620.2 616.9,539.3 587.1,522.0"/>
<line class="rack-rail" x1="589.0" y1="601.8" x2="589.0" y2="525.5"/>
<line class="rack-rail" x1="614.9" y1="616.8" x2="614.9" y2="540.4"/>
<polygon class="server-panel" points="589.0,595.1 614.9,610.0 614.9,597.6 589.0,582.6"/>
<line class="server-edge-top" x1="589.0" y1="582.6" x2="614.9" y2="597.6"/>
<polygon class="server-bracket" points="588.2,592.1 589.0,592.6 589.0,585.1 588.2,584.7"/>
<polygon class="server-bracket" points="614.9,607.5 615.7,608.0 615.7,600.5 614.9,600.1"/>
<polygon class="tenant-e phase-3" points="591.3,593.7 595.4,596.1 595.4,588.9 591.3,586.5"/>
<polygon class="tenant-a phase-4" points="599.9,598.7 604.1,601.1 604.1,593.9 599.9,591.5"/>
<polygon class="tenant-b phase-5" points="608.6,603.7 612.7,606.1 612.7,598.9 608.6,596.5"/>
<polygon class="server-panel" points="589.0,578.3 614.9,593.2 614.9,580.8 589.0,565.8"/>
<line class="server-edge-top" x1="589.0" y1="565.8" x2="614.9" y2="580.8"/>
<polygon class="server-bracket" points="588.2,575.3 589.0,575.8 589.0,568.3 588.2,567.9"/>
<polygon class="server-bracket" points="614.9,590.7 615.7,591.2 615.7,583.7 614.9,583.3"/>
<polygon class="mvm-notebook phase-6" points="591.3,576.9 595.4,579.3 595.4,572.1 591.3,569.7"/>
<polygon class="mvm-notebook phase-7" points="599.9,581.9 604.1,584.3 604.1,577.1 599.9,574.7"/>
<polygon class="mvm-notebook phase-0" points="608.6,586.9 612.7,589.3 612.7,582.1 608.6,579.7"/>
<polygon class="server-panel" points="589.0,561.5 614.9,576.4 614.9,564.0 589.0,549.0"/>
<line class="server-edge-top" x1="589.0" y1="549.0" x2="614.9" y2="564.0"/>
<polygon class="server-bracket" points="588.2,558.5 589.0,559.0 589.0,551.5 588.2,551.1"/>
<polygon class="server-bracket" points="614.9,573.9 615.7,574.4 615.7,566.9 614.9,566.5"/>
<polygon class="tenant-a phase-1" points="591.3,560.2 595.4,562.6 595.4,555.3 591.3,553.0"/>
<polygon class="tenant-b phase-2" points="599.9,565.1 604.1,567.5 604.1,560.3 599.9,557.9"/>
<polygon class="tenant-c phase-3" points="608.6,570.1 612.7,572.5 612.7,565.3 608.6,562.9"/>
<polygon class="server-panel" points="589.0,544.7 614.9,559.6 614.9,547.2 589.0,532.3"/>
<line class="server-edge-top" x1="589.0" y1="532.3" x2="614.9" y2="547.2"/>
<polygon class="server-bracket" points="588.2,541.7 589.0,542.2 589.0,534.7 588.2,534.3"/>
<polygon class="server-bracket" points="614.9,557.1 615.7,557.6 615.7,550.2 614.9,549.7"/>
<polygon class="mvm-infra phase-4" points="591.3,543.4 595.4,545.8 595.4,538.6 591.3,536.2"/>
<polygon class="mvm-infra phase-5" points="599.9,548.4 604.1,550.7 604.1,543.5 599.9,541.1"/>
<polygon class="mvm-infra phase-6" points="608.6,553.3 612.7,555.7 612.7,548.5 608.6,546.1"/>
<line class="rack-edge" x1="587.1" y1="522.0" x2="616.9" y2="539.3"/>
<line class="rack-edge" x1="654.8" y1="517.4" x2="616.9" y2="539.3"/>
<path class="wg-link" d="M 543.6 562.6 Q 692.3 318.7 841.0 320.3"/>
<path class="wg-link" d="M 741.4 229.2 Q 571.5 122.7 401.5 233.8"/>
<path class="wg-link" d="M 491.8 219.2 Q 526.3 277.5 560.8 555.8"/>
<path class="wg-link" d="M 618.6 539.2 Q 680.0 304.2 741.4 262.8"/>
<path class="wg-link" d="M 450.6 212.2 Q 624.9 100.9 799.2 212.7"/>
<path class="wg-link" d="M 511.0 510.2 Q 447.6 280.0 384.2 240.6"/>
<path class="wg-link" d="M 543.6 562.6 Q 497.1 271.4 450.6 212.2"/>
<path class="wg-link" d="M 459.2 217.2 Q 674.7 94.5 890.1 248.4"/>
<path class="wg-link" d="M 849.0 258.2 Q 675.7 250.7 502.4 522.0"/>
<path class="wg-link" d="M 651.1 541.2 Q 750.4 339.4 849.6 325.3"/>
<path class="wg-link" d="M 334.4 211.8 Q 620.9 51.1 907.4 258.4"/>
<path class="wg-link" d="M 782.6 286.6 Q 725.5 326.7 668.4 551.2"/>
<path class="wg-link" d="M 450.6 195.4 Q 501.4 254.8 552.2 550.8"/>
<path class="wg-link" d="M 511.0 543.8 Q 476.8 292.8 442.6 240.7"/>
<path class="wg-link" d="M 849.6 291.7 Q 750.4 310.2 651.1 524.4"/>
<path class="wg-link" d="M 502.4 538.8 Q 443.3 260.2 384.2 207.0"/>
<path class="wg-link" d="M 334.4 211.8 Q 463.9 254.6 593.4 591.3"/>
<path class="wg-link" d="M 907.4 258.4 Q 779.3 282.0 651.1 558.0"/>
<path class="wg-link" d="M 741.4 246.0 Q 537.9 80.1 334.4 178.3"/>
<path class="wg-link" d="M 593.4 591.3 Q 468.2 247.0 343.1 200.0"/>
<path class="wg-link" d="M 334.4 195.0 Q 542.2 96.4 750.1 267.8"/>
<path class="wg-link" d="M 493.8 517.0 Q 692.0 240.8 890.1 265.2"/>
<path class="wg-link" d="M 434.0 269.3 Q 493.1 315.8 552.2 567.6"/>
<path class="wg-link" d="M 849.6 291.7 Q 654.4 117.8 459.2 200.4"/>
<path class="wg-link" d="M 442.6 274.3 Q 592.0 172.9 741.4 262.8"/>
<path class="wg-link" d="M 401.5 217.0 Q 526.3 252.2 651.1 558.0"/>
<path class="wg-link" d="M 791.2 274.8 Q 641.5 149.5 491.8 219.2"/>
<path class="wg-link" d="M 593.4 557.8 Q 518.0 286.9 442.6 240.7"/>
<path class="wg-link" d="M 659.8 529.4 Q 584.4 271.8 509.0 229.2"/>
<path class="wg-link" d="M 750.1 234.2 Q 659.4 262.7 568.8 493.7"/>
<path class="wg-link-hi" d="M 334.4 161.5 Q 558.5 53.4 782.6 236.2"/>
<path class="wg-link-hi" d="M 782.6 236.2 Q 675.7 249.1 568.8 460.1"/>
<path class="wg-link-hi" d="M 450.6 161.8 Q 509.7 208.3 568.8 460.1"/>
<path class="wg-link-hi" d="M 392.8 195.2 Q 476.5 226.2 560.2 455.1"/>
<path class="wg-link-hi" d="M 907.4 241.6 Q 674.7 47.8 442.0 156.9"/>
<path class="wg-link-hi" d="M 840.4 202.9 Q 754.4 245.5 668.4 517.6"/>
<path class="wg-link-hi" d="M 442.6 223.9 Q 472.5 269.4 502.4 488.4"/>
<path class="wg-link-hi" d="M 610.6 550.9 Q 680.3 268.5 750.1 217.4"/>
<path class="wg-link-hi" d="M 907.4 241.6 Q 779.3 256.4 651.1 507.6"/>
<path class="wg-link-hi" d="M 442.6 223.9 Q 501.7 270.4 560.8 522.2"/>
<path class="wg-link-hi" d="M 400.8 133.1 Q 596.0 57.5 791.2 241.2"/>
<path class="wg-link-hi" d="M 741.4 212.4 Q 626.2 236.7 511.0 493.4"/>
<path class="spawn-link" d="M 400.8 133.1 Q 454.9 169.5 509.0 245.9"/>
<path class="spawn-link" d="M 400.8 133.1 Q 401.1 171.8 401.5 250.5"/>
<path class="spawn-link" d="M 799.2 179.1 Q 853.3 215.5 907.4 291.9"/>
<path class="spawn-link" d="M 799.2 179.1 Q 799.5 217.8 799.8 296.5"/>
<path class="spawn-link" d="M 560.2 455.1 Q 614.3 491.5 668.4 567.9"/>
<path class="spawn-link" d="M 560.2 455.1 Q 560.5 493.8 560.8 572.5"/>
<path class="client-link" d="M 392.2 144.9 Q 396.5 113.0 400.8 133.1"/>
<path class="client-link" d="M 400.8 149.9 Q 400.8 115.5 400.8 133.1"/>
<path class="client-link" d="M 409.4 154.9 Q 405.1 118.0 400.8 133.1"/>
<path class="client-link" d="M 790.6 190.9 Q 794.9 159.0 799.2 179.1"/>
<path class="client-link" d="M 799.2 195.9 Q 799.2 161.5 799.2 179.1"/>
<path class="client-link" d="M 807.8 200.9 Q 803.5 164.0 799.2 179.1"/>
<path class="client-link" d="M 551.5 466.9 Q 555.8 435.0 560.2 455.1"/>
<path class="client-link" d="M 560.2 471.9 Q 560.2 437.5 560.2 455.1"/>
<path class="client-link" d="M 568.8 476.9 Q 564.5 440.0 560.2 455.1"/>
<path class="client-link" d="M 203.6 210.5 Q 302.2 116.7 400.8 133.1"/>
<path class="client-link" d="M 946.6 524.4 Q 753.4 387.7 560.2 455.1"/>
<polygon class="laptop-side"  points="209.6,258.1 185.7,271.9 185.7,269.1 209.6,255.3"/>
<polygon class="laptop-front" points="151.8,252.3 185.7,271.9 185.7,269.1 151.8,249.6"/>
<polygon class="laptop-deck"  points="175.7,235.8 209.6,255.3 185.7,269.1 151.8,249.6"/>
<polygon class="laptop-screen" points="176.7,236.4 208.6,254.8 219.6,219.7 187.7,201.3"/>
<polygon class="laptop-display" points="181.7,232.6 207.2,247.3 214.8,222.8 189.3,208.0"/>
<polygon class="laptop-side"  points="952.6,572.0 928.7,585.8 928.7,583.1 952.6,569.3"/>
<polygon class="laptop-front" points="894.8,566.3 928.7,585.8 928.7,583.1 894.8,563.5"/>
<polygon class="laptop-deck"  points="918.7,549.7 952.6,569.3 928.7,583.1 894.8,563.5"/>
<polygon class="laptop-screen" points="919.7,550.3 951.6,568.7 962.5,533.6 930.6,515.2"/>
<polygon class="laptop-display" points="924.6,546.5 950.1,561.3 957.8,536.7 932.3,522.0"/>
<path class="forge-link gitlab" d="M 255.0 85.0 Q 323.6 80.5 392.2 144.9"/>
<path class="forge-link gitlab" d="M 255.0 85.0 Q 522.8 103.5 790.6 190.9"/>
<path class="forge-link gitlab" d="M 255.0 85.0 Q 403.3 241.5 551.5 466.9"/>
<path class="forge-link forgejo" d="M 610.0 69.0 Q 509.7 77.4 409.4 154.9"/>
<path class="forge-link forgejo" d="M 610.0 69.0 Q 708.9 100.4 807.8 200.9"/>
<path class="forge-link forgejo" d="M 610.0 69.0 Q 589.4 238.4 568.8 476.9"/>
<path class="forge-link github" d="M 1015.0 115.0 Q 707.9 97.9 400.8 149.9"/>
<path class="forge-link github" d="M 1015.0 115.0 Q 907.1 120.9 799.2 195.9"/>
<path class="forge-link github" d="M 1015.0 115.0 Q 787.6 258.9 560.2 471.9"/>
<g transform="translate(255,66)">
  <rect class="forge-tile" x="-19" y="-19" width="38" height="38" rx="9"/>
  <use href="#logo-gitlab" x="-12" y="-12" width="24" height="24" class="logo-gitlab"/>
  <text class="forge-label" y="33">GitLab</text>
</g>
<g transform="translate(610,50)">
  <rect class="forge-tile" x="-19" y="-19" width="38" height="38" rx="9"/>
  <use href="#logo-forgejo" x="-12" y="-12" width="24" height="24" class="logo-forgejo"/>
  <text class="forge-label" y="33">Forgejo</text>
</g>
<g transform="translate(1015,96)">
  <rect class="forge-tile" x="-19" y="-19" width="38" height="38" rx="9"/>
  <use href="#logo-github" x="-12" y="-12" width="24" height="24" class="logo-github"/>
  <text class="forge-label" y="33">GitHub</text>
</g>
<path class="forge-link jupyter" d="M 120.0 451.0 Q 277.0 317.3 434.0 252.5"/>
<path class="forge-link jupyter" d="M 120.0 451.0 Q 476.2 340.3 832.4 298.5"/>
<path class="forge-link jupyter" d="M 120.0 451.0 Q 356.7 478.3 593.4 574.5"/>
<g transform="translate(120,432)">
  <rect class="forge-tile" x="-19" y="-19" width="38" height="38" rx="9"/>
  <use href="#logo-jupyter" x="-12" y="-12" width="24" height="24" class="logo-jupyter"/>
  <text class="forge-label" y="33">JupyterHub</text>
</g>
<text class="dc-label" x="440.7" y="359.1">DC-A</text>
<text class="dc-label" x="839.0" y="405.1">DC-B</text>
<text class="dc-label" x="600.0" y="681.1">DC-C</text>
<g transform="translate(40, 752)">
  <rect class="legend-bg" x="-12" y="-36" width="900" height="74" rx="7"/>
  <rect class="tenant-a" x="6"  y="-29" width="10" height="10"/>
  <rect class="tenant-b" x="20" y="-29" width="10" height="10"/>
  <rect class="tenant-c" x="34" y="-29" width="10" height="10"/>
  <rect class="tenant-d" x="48" y="-29" width="10" height="10"/>
  <rect class="tenant-e" x="62" y="-29" width="10" height="10"/>
  <text class="legend-text" x="80" y="-20">Tenant microVMs (multi-tenant)</text>
  <rect class="mvm-infra" x="6" y="-13" width="10" height="10"/>
  <text class="legend-text" x="22" y="-4">Infra microVM (etcd, nats, dex, zot, weft, envoy, otel…)</text>
  <rect class="runner-gitlab"  x="6"  y="3" width="10" height="10"/>
  <rect class="runner-github"  x="20" y="3" width="10" height="10"/>
  <rect class="runner-forgejo" x="34" y="3" width="10" height="10"/>
  <text class="legend-text" x="50" y="12">CI runner microVMs (GitLab / GitHub / Forgejo)</text>
  <rect class="svc-cubefs" x="6" y="19" width="10" height="10"/>
  <text class="legend-text" x="22" y="28">CubeFS storage microVMs (S3 + POSIX)</text>
  <rect class="mvm-ci" x="336" y="-29" width="10" height="10"/>
  <text class="legend-text" x="352" y="-20">CI-job microVM (ephemeral)</text>
  <path class="wg-link-hi" d="M 336 -6 Q 350 -14 364 -6"/>
  <text class="legend-text" x="372" y="-4">Control-plane mesh (infra)</text>
  <path class="wg-link" d="M 336 12 Q 350 4 364 12"/>
  <text class="legend-text" x="372" y="12">Tenant overlay (workloads)</text>
  <rect class="mvm-notebook" x="336" y="19" width="10" height="10"/>
  <text class="legend-text" x="352" y="28">Notebook microVM (JupyterHub, per-user)</text>
  <path class="client-link" d="M 612 -24 Q 626 -30 640 -24"/>
  <text class="legend-text" x="648" y="-20">Client API → weft (gRPC over SRV)</text>
  <path class="spawn-link" d="M 612 -6 Q 626 -14 640 -6"/>
  <text class="legend-text" x="648" y="-4">CI spawn (weft → job microVM)</text>
  <rect class="laptop-deck" x="612" y="7" width="10" height="10"/>
  <text class="legend-text" x="628" y="12">Dev laptop (external client)</text>
  <path class="forge-link gitlab" d="M 612 25 Q 626 19 640 25"/>
  <text class="legend-text" x="648" y="28">External forge → CI runners in all 3 DCs (HA)</text>
</g>
</svg>
